<svg width="38" height="38" viewBox="0 0 38 38" fill="none" xmlns="http://www.w3.org/2000/svg">
<path fill-rule="evenodd" clip-rule="evenodd" d="M32.4633 5.52301C30.7105 3.76709 28.6251 2.37478 26.3278 1.42673C24.0305 0.478692 21.567 -0.00623033 19.08 6.04297e-05C8.65167 6.04297e-05 0.162285 8.44706 0.15807 18.8301C0.15807 22.1485 1.02851 25.3872 2.68297 28.2441L0 38L10.03 35.3801C12.8045 36.8832 15.9128 37.6714 19.0716 37.6728H19.08C29.5063 37.6728 37.9957 29.2258 37.9999 18.8427C38.0071 16.3686 37.5215 13.9176 36.5711 11.6313C35.6208 9.34509 34.2246 7.26899 32.4633 5.52301ZM19.08 34.4949H19.0737C16.257 34.4952 13.492 33.741 11.0691 32.3113L10.4958 31.9715L4.54397 33.5258L6.13099 27.7512L5.75795 27.1597C4.18313 24.6644 3.34946 21.7768 3.35318 18.8301C3.3574 10.2006 10.4115 3.18001 19.0864 3.18001C21.1523 3.17544 23.1987 3.57872 25.107 4.36651C27.0154 5.1543 28.7477 6.31096 30.2039 7.76953C31.6679 9.22115 32.8283 10.9472 33.618 12.8478C34.4077 14.7484 34.8111 16.786 34.8048 18.8427C34.8006 27.4722 27.7465 34.4949 19.08 34.4949ZM27.7064 22.7715C27.2322 22.5345 24.9097 21.3976 24.4755 21.2403C24.0434 21.0829 23.7294 21.0053 23.4133 21.4752C23.0971 21.945 22.1909 23.0043 21.9148 23.319C21.6387 23.6336 21.3626 23.6714 20.8905 23.4364C20.4184 23.2015 18.8946 22.7044 17.0884 21.1018C15.6826 19.8538 14.7342 18.3141 14.4581 17.8422C14.182 17.3702 14.4286 17.1164 14.6667 16.8815C14.8796 16.6717 15.1388 16.3319 15.3749 16.0571C15.6109 15.7823 15.6889 15.5873 15.847 15.2726C16.0051 14.958 15.9271 14.6832 15.807 14.4483C15.6889 14.2112 14.7426 11.8955 14.3485 10.9537C13.967 10.0412 13.5771 10.1629 13.2863 10.1503C12.985 10.138 12.6836 10.1324 12.3821 10.1335C12.1424 10.1396 11.9065 10.1949 11.6893 10.296C11.472 10.397 11.2781 10.5417 11.1197 10.7208C10.6855 11.1928 9.46521 12.3297 9.46521 14.6454C9.46521 16.9612 11.1597 19.1993 11.3958 19.5139C11.6318 19.8286 14.73 24.5796 19.4721 26.6185C20.6017 27.103 21.4827 27.3925 22.1677 27.6106C23.2995 27.9693 24.3301 27.9169 25.1457 27.7973C26.0541 27.6631 27.9425 26.6604 28.3366 25.5613C28.7307 24.4622 28.7307 23.5203 28.6127 23.3232C28.4947 23.126 28.1764 23.0064 27.7064 22.7715Z" fill="#FFFAFA"/>
</svg>
