<svg width="1920" height="1048" viewBox="0 0 1920 1048" fill="none" xmlns="http://www.w3.org/2000/svg">
<path d="M1104.83 90.5C1376.3 38.9214 1776.23 30.8286 1937.97 90.5V1000.38C1607.75 936 1505.09 910.812 1163.07 936C911.859 954.5 720.197 1000.38 481.863 1000.38C358.79 1000.38 53.3345 947.834 -11.9481 936V38.9214C266.517 83.925 842.995 140.247 1104.83 90.5Z" fill="#65C525"/>
<path d="M1049.29 72.0116C660.809 -16.2728 219.39 -6.61722 -11.9484 13.9325V196H1940V7.56007C1688.12 81.9943 1347.85 139.86 1049.29 72.0116Z" fill="#65C525" fill-opacity="0.5"/>
<path d="M878.761 72.0116C1267.24 -16.2728 1708.66 -6.61722 1940 13.9325V196H-11.9484V7.56007C239.931 81.9943 580.203 139.86 878.761 72.0116Z" fill="#65C525" fill-opacity="0.2"/>
<path d="M937.43 1018.67C1251.53 923.054 1748 910.816 1932.91 923.054V837H-10.9354V993.5C380.568 903.5 590.637 1124.24 937.43 1018.67Z" fill="#65C525" fill-opacity="0.5"/>
<path d="M1144.33 965.327C1539.06 1054.23 1706.4 1053.08 1937.97 1016.97V697H-16.0001V1028.16C374.997 965.327 797.903 887.303 1144.33 965.327Z" fill="#65C525" fill-opacity="0.2"/>
</svg>
