<svg xmlns="http://www.w3.org/2000/svg" baseProfile="tiny-ps" version="1.2" viewBox="0 0 363 209"><defs/><style></style><g id="Background"><path id="Path 1" fill="#fff" d="M184.33 6.37c-3.24 3.54-7.9 10.3-10.5 15.25-2.56 4.88-7.23 14.95-10.37 22.38-3.14 7.42-6.71 15.52-7.94 18-1.22 2.47-2.86 4.8-3.62 5.17-.9.44-6.79-3.46-16.4-10.84-8.25-6.33-18.6-13.89-23-16.8-4.4-2.9-10.93-6.44-14.5-7.86-3.58-1.42-8.86-3.05-11.75-3.63-3.52-.7-5.91-.71-7.25-.04-1.74.87-2.08 2.34-2.6 11.25-.32 5.64-.08 19.7.55 31.25s.78 22.9.35 25.22c-.57 2.99-1.38 4.37-2.8 4.74-1.1.28-7.4.52-14 .53-6.6 0-22.91.35-36.25.76-22.15.68-24.25.9-24.25 2.5 0 .96 1.18 5.01 2.63 9 1.44 3.99 4.22 10.62 6.17 14.75 1.95 4.12 6.49 12 10.1 17.5 4.16 6.35 10.39 13.86 17.08 20.57 5.78 5.82 13.22 12.59 16.52 15.06 3.3 2.47 9.82 6.73 14.5 9.47 4.67 2.74 11.42 6.37 15 8.06 3.57 1.7 9.65 4.01 13.5 5.15 3.85 1.14 9.92 2.58 13.5 3.21 3.57.62 13.59 1.1 22.25 1.06 8.66-.05 16.76-.3 18-.56 1.24-.27 8.55-.97 16.25-1.56 7.7-.59 18.27-1.05 23.5-1.02 5.22.03 16.25.95 24.5 2.04s20.4 1.99 27 2.01c6.6.02 15.82-.63 20.5-1.45 4.67-.81 11.42-2.42 15-3.58 3.57-1.16 11-4.24 16.5-6.83 5.5-2.6 13.6-7.18 18-10.18s12.75-10.18 18.55-15.95c5.8-5.78 12.61-13.43 15.14-17 2.52-3.58 6.41-9.88 8.64-14 2.22-4.13 5.17-10.88 6.54-15 1.37-4.13 2.82-10.2 3.22-13.5.66-5.49.54-6.11-1.43-7.25-1.19-.69-7-1.75-12.91-2.35-5.91-.61-17.95-1.14-26.75-1.18-8.8-.04-18.93.47-22.5 1.14-3.58.66-6.73.93-7 .6-.28-.33.07-12.38.76-26.78s1.48-30.01 1.76-34.68c.28-4.68.08-9.18-.44-10-.85-1.33-1.92-1.3-9.27.27-4.79 1.02-12.12 3.63-17.31 6.16-4.95 2.43-15.19 8.72-22.75 13.99-7.56 5.27-14.24 9.47-14.84 9.33-.59-.14-3.44-6.1-6.33-13.25s-6.73-15.93-8.53-19.5c-1.81-3.58-5.2-9.43-7.54-13-2.33-3.58-6.67-8.43-9.63-10.79-2.96-2.35-5.9-4.27-6.55-4.25-.64.02-3.79 2.91-7 6.41z"/><path id="Path 2" fill="#ddd" d="M224.25 70.07c-1.79.51-4.71 1.83-6.5 2.93s-5.43 4.14-8.09 6.75c-2.67 2.61-6.47 7.22-8.46 10.25-1.99 3.02-5.31 9.32-7.37 14-2.06 4.67-4.81 12.55-6.11 17.5-1.65 6.3-2.62 8.55-3.22 7.5-.48-.83-3.7-9.15-7.17-18.5-3.62-9.75-8.34-20.34-11.07-24.83-2.62-4.31-6-9.37-7.51-11.25-2.61-3.25-2.89-3.35-5.5-2.06-1.54.76-3.7 3.3-4.89 5.75-1.22 2.49-2.67 8.49-3.36 13.89-.7 5.52-1.06 16.93-.86 27.25.2 9.76.13 17.77-.14 17.79-.28.02-4.55-3.18-9.5-7.11-4.95-3.94-10.8-8.39-13-9.89-2.2-1.51-6.03-3.86-8.5-5.23-2.48-1.37-7.43-3.44-11-4.6-3.58-1.16-8.3-2.4-10.5-2.75-2.2-.35-4.9-.89-6-1.21-1.88-.54-1.95-.27-1.21 4.34.43 2.7 1.95 8.28 3.39 12.41 1.43 4.12 4.39 10.87 6.57 15 2.19 4.12 6.04 10.42 8.55 14 2.52 3.57 7.76 9.83 11.64 13.89 3.88 4.07 10.66 10.08 15.06 13.35 4.4 3.28 11.15 7.46 15 9.3 3.85 1.84 10.6 4.37 15 5.62 6.52 1.86 10.4 2.28 21 2.25 10.51-.03 14.62-.48 21.5-2.39 4.67-1.3 11.65-3.65 15.5-5.24 3.85-1.58 10.37-4.72 14.5-6.98 4.12-2.26 10.87-6.37 15-9.14 4.12-2.77 9.91-7.32 12.85-10.1 2.94-2.78 7.5-7.99 10.13-11.56 2.62-3.58 6.16-8.98 7.86-12 1.7-3.03 4.25-8.88 5.66-13 1.41-4.13 2.89-10.17 3.28-13.42l.72-5.93c-13.37 1.14-19.35 2.4-22.5 3.67-3.03 1.22-9.33 4.96-14 8.31-4.68 3.35-10.75 7.29-13.5 8.74l-5 2.65c-.49-6.6-.16-12.12.41-16.52.56-4.4 1.29-12.5 1.61-18 .32-5.5.22-13.6-.22-18-.8-7.99-.8-8-3.8-8.18-1.65-.1-4.46.23-6.25.75z"/></g></svg>