<svg version="1.2" baseProfile="tiny-ps" xmlns="http://www.w3.org/2000/svg" viewBox="0 0 363 209" width="363" height="209">
	<title>Background</title>
	<style>
		tspan { white-space:pre }
		.shp0 { fill: #87d657 } 
		.shp1 { fill: #63c41c } 
	</style>
	<g id="Background">
		<path id="Path 1" class="shp0" d="M184.33 6.37C181.09 9.91 176.43 16.67 173.83 21.62C171.27 26.5 166.6 36.57 163.46 44C160.32 51.42 156.75 59.52 155.52 62C154.3 64.47 152.66 66.8 151.9 67.17C151 67.61 145.11 63.71 135.5 56.33C127.25 50 116.9 42.44 112.5 39.53C108.1 36.63 101.57 33.09 98 31.67C94.42 30.25 89.14 28.62 86.25 28.04C82.73 27.34 80.34 27.33 79 28C77.26 28.87 76.92 30.34 76.4 39.25C76.08 44.89 76.32 58.95 76.95 70.5C77.58 82.05 77.73 93.4 77.3 95.72C76.73 98.71 75.92 100.09 74.5 100.46C73.4 100.74 67.1 100.98 60.5 100.99C53.9 100.99 37.59 101.34 24.25 101.75C2.1 102.43 0 102.65 0 104.25C0 105.21 1.18 109.26 2.63 113.25C4.07 117.24 6.85 123.87 8.8 128C10.75 132.12 15.29 140 18.9 145.5C23.06 151.85 29.29 159.36 35.98 166.07C41.76 171.89 49.2 178.66 52.5 181.13C55.8 183.6 62.32 187.86 67 190.6C71.67 193.34 78.42 196.97 82 198.66C85.57 200.36 91.65 202.67 95.5 203.81C99.35 204.95 105.42 206.39 109 207.02C112.57 207.64 122.59 208.12 131.25 208.08C139.91 208.03 148.01 207.78 149.25 207.52C150.49 207.25 157.8 206.55 165.5 205.96C173.2 205.37 183.77 204.91 189 204.94C194.22 204.97 205.25 205.89 213.5 206.98C221.75 208.07 233.9 208.97 240.5 208.99C247.1 209.01 256.32 208.36 261 207.54C265.67 206.73 272.42 205.12 276 203.96C279.57 202.8 287 199.72 292.5 197.13C298 194.53 306.1 189.95 310.5 186.95C314.9 183.95 323.25 176.77 329.05 171C334.85 165.22 341.66 157.57 344.19 154C346.71 150.42 350.6 144.12 352.83 140C355.05 135.87 358 129.12 359.37 125C360.74 120.87 362.19 114.8 362.59 111.5C363.25 106.01 363.13 105.39 361.16 104.25C359.97 103.56 354.16 102.5 348.25 101.9C342.34 101.29 330.3 100.76 321.5 100.72C312.7 100.68 302.57 101.19 299 101.86C295.42 102.52 292.27 102.79 292 102.46C291.72 102.13 292.07 90.08 292.76 75.68C293.45 61.28 294.24 45.67 294.52 41C294.8 36.32 294.6 31.82 294.08 31C293.23 29.67 292.16 29.7 284.81 31.27C280.02 32.29 272.69 34.9 267.5 37.43C262.55 39.86 252.31 46.15 244.75 51.42C237.19 56.69 230.51 60.89 229.91 60.75C229.32 60.61 226.47 54.65 223.58 47.5C220.69 40.35 216.85 31.57 215.05 28C213.24 24.42 209.85 18.57 207.51 15C205.18 11.42 200.84 6.57 197.88 4.21C194.92 1.86 191.98 -0.06 191.33 -0.04C190.69 -0.02 187.54 2.87 184.33 6.37Z" />
		<path id="Path 2" class="shp1" d="M224.25 70.07C222.46 70.58 219.54 71.9 217.75 73C215.96 74.1 212.32 77.14 209.66 79.75C206.99 82.36 203.19 86.97 201.2 90C199.21 93.02 195.89 99.32 193.83 104C191.77 108.67 189.02 116.55 187.72 121.5C186.07 127.8 185.1 130.05 184.5 129C184.02 128.17 180.8 119.85 177.33 110.5C173.71 100.75 168.99 90.16 166.26 85.67C163.64 81.36 160.26 76.3 158.75 74.42C156.14 71.17 155.86 71.07 153.25 72.36C151.71 73.12 149.55 75.66 148.36 78.11C147.14 80.6 145.69 86.6 145 92C144.3 97.52 143.94 108.93 144.14 119.25C144.34 129.01 144.27 137.02 144 137.04C143.72 137.06 139.45 133.86 134.5 129.93C129.55 125.99 123.7 121.54 121.5 120.04C119.3 118.53 115.47 116.18 113 114.81C110.52 113.44 105.57 111.37 102 110.21C98.42 109.05 93.7 107.81 91.5 107.46C89.3 107.11 86.6 106.57 85.5 106.25C83.62 105.71 83.55 105.98 84.29 110.59C84.72 113.29 86.24 118.87 87.68 123C89.11 127.12 92.07 133.87 94.25 138C96.44 142.12 100.29 148.42 102.8 152C105.32 155.57 110.56 161.83 114.44 165.89C118.32 169.96 125.1 175.97 129.5 179.24C133.9 182.52 140.65 186.7 144.5 188.54C148.35 190.38 155.1 192.91 159.5 194.16C166.02 196.02 169.9 196.44 180.5 196.41C191.01 196.38 195.12 195.93 202 194.02C206.67 192.72 213.65 190.37 217.5 188.78C221.35 187.2 227.87 184.06 232 181.8C236.12 179.54 242.87 175.43 247 172.66C251.12 169.89 256.91 165.34 259.85 162.56C262.79 159.78 267.35 154.57 269.98 151C272.6 147.42 276.14 142.02 277.84 139C279.54 135.97 282.09 130.12 283.5 126C284.91 121.87 286.39 115.83 286.78 112.58L287.5 106.65C274.13 107.79 268.15 109.05 265 110.32C261.97 111.54 255.67 115.28 251 118.63C246.32 121.98 240.25 125.92 237.5 127.37L232.5 130.02C232.01 123.42 232.34 117.9 232.91 113.5C233.47 109.1 234.2 101 234.52 95.5C234.84 90 234.74 81.9 234.3 77.5C233.5 69.51 233.5 69.5 230.5 69.32C228.85 69.22 226.04 69.55 224.25 70.07Z" />
	</g>
</svg>