<svg xmlns="http://www.w3.org/2000/svg" fill="none" viewBox="0 0 746 198"><defs/><path fill="#65C525" d="M126.674 141.05l-1.973-1.16c-1.315-.774-3.055-1.625-5.221-2.553-2.166-1.006-4.525-1.895-7.078-2.669-2.553-.773-5.067-1.16-7.542-1.16-1.934 0-3.52.309-4.757.928-1.238.619-1.857 1.663-1.857 3.133 0 2.166 1.354 3.713 4.061 4.641 2.785.851 6.537 2.05 11.255 3.598 5.106 1.547 9.515 3.326 13.228 5.337 3.713 2.012 6.575 4.603 8.586 7.775 2.012 3.094 3.017 7.233 3.017 12.415 0 4.951-.889 9.128-2.669 12.532-1.779 3.326-4.177 5.995-7.194 8.007-3.016 2.012-6.381 3.481-10.094 4.409a50.685 50.685 0 01-11.372 1.277c-3.945 0-8.083-.388-12.415-1.161a94.58 94.58 0 01-12.415-3.365c-4.023-1.469-7.697-3.172-11.023-5.105l9.746-19.843 2.32 1.393c1.548.928 3.598 1.972 6.15 3.133 2.553 1.16 5.377 2.205 8.47 3.133 3.173.928 6.344 1.392 9.516 1.392 2.475 0 4.177-.309 5.105-.928 1.006-.696 1.508-1.586 1.508-2.669 0-1.624-.851-2.862-2.552-3.713-1.702-.928-3.945-1.779-6.73-2.553a931.581 931.581 0 01-9.05-2.901c-7.272-2.475-12.57-5.415-15.897-8.818-3.326-3.482-4.99-8.239-4.99-14.273 0-6.111 1.432-11.217 4.294-15.317 2.862-4.1 6.614-7.194 11.255-9.283 4.718-2.165 9.785-3.249 15.2-3.249 4.022 0 7.89.503 11.603 1.509 3.791.928 7.31 2.089 10.559 3.481 3.326 1.392 6.227 2.708 8.703 3.945l-9.747 18.682zm58.85 56.161c-6.266 0-11.951-1.16-17.057-3.481-5.105-2.397-9.514-5.569-13.228-9.515-3.635-4.021-6.459-8.509-8.47-13.46a42.958 42.958 0 01-2.901-15.549c0-5.492 1.045-10.714 3.133-15.664a43.186 43.186 0 018.703-13.229c3.79-3.945 8.238-7.039 13.343-9.282 5.183-2.244 10.83-3.365 16.941-3.365 6.267 0 11.952 1.199 17.058 3.597 5.105 2.32 9.475 5.492 13.111 9.515a43.276 43.276 0 018.355 13.576c2.009 4.951 3.016 10.056 3.016 15.317 0 5.415-1.044 10.598-3.132 15.548-2.012 4.951-4.913 9.399-8.703 13.345-3.713 3.868-8.122 6.962-13.227 9.282-5.106 2.244-10.754 3.365-16.942 3.365zm-18.681-41.772c0 3.635.657 7.116 1.972 10.443 1.393 3.326 3.481 6.034 6.266 8.122 2.862 2.089 6.42 3.133 10.675 3.133 4.41 0 7.968-1.083 10.676-3.249 2.785-2.166 4.834-4.912 6.148-8.238 1.315-3.404 1.974-6.885 1.974-10.444 0-3.713-.696-7.194-2.088-10.443-1.393-3.249-3.481-5.879-6.266-7.89-2.785-2.089-6.305-3.133-10.56-3.133-4.332 0-7.89 1.083-10.675 3.249-2.785 2.088-4.835 4.796-6.15 8.122-1.315 3.249-1.972 6.692-1.972 10.328zm140.358 19.958c0 4.95-1.355 8.974-4.061 12.067-2.632 3.094-6.189 5.377-10.675 6.847-4.488 1.469-9.438 2.204-14.852 2.204h-40.495V114.13h47.805c3.866 0 7.194 1.044 9.979 3.133 2.861 2.011 5.026 4.641 6.497 7.89 1.546 3.249 2.321 6.614 2.321 10.095 0 3.791-1.007 7.465-3.017 11.024-1.935 3.558-4.873 6.227-8.818 8.006 4.718 1.393 8.431 3.829 11.139 7.31 2.785 3.482 4.177 8.084 4.177 13.809zm-47.457-42.005v12.648h15.432c1.546 0 2.938-.426 4.177-1.277 1.314-.851 1.973-2.553 1.973-5.105 0-2.244-.543-3.83-1.625-4.758-1.083-1.005-2.36-1.508-3.829-1.508h-16.128zm24.483 37.363c0-2.011-.543-3.674-1.625-4.989-1.083-1.393-2.476-2.089-4.177-2.089h-18.681v13.808h17.869c1.856 0 3.402-.58 4.641-1.74 1.314-1.161 1.973-2.824 1.973-4.99zm33.002 25.76V114.13h37.827c4.022 0 7.735.812 11.139 2.436a27.558 27.558 0 018.818 6.615 28.925 28.925 0 015.686 9.166c1.392 3.404 2.089 6.846 2.089 10.328 0 4.718-1.045 9.166-3.133 13.344-2.089 4.177-4.99 7.581-8.703 10.211l17.405 30.285h-24.831l-14.504-25.296h-9.166v25.296h-22.627zm22.627-45.022h14.272c1.392 0 2.668-.773 3.829-2.32 1.237-1.548 1.856-3.714 1.856-6.498 0-2.863-.696-5.029-2.088-6.498-1.393-1.548-2.785-2.321-4.177-2.321h-13.692v17.637zm114.385 25.296v19.726h-58.713V114.13h57.668v19.726h-35.041v11.603h29.936v18.334h-29.936v12.996h36.086z"/><path fill="#9F7E69" d="M553.133 196.515v-43.397l-13.808 30.517h-12.067l-13.808-30.517v43.397h-22.626V114.13h24.714l17.753 38.756 17.869-38.756h24.599v82.385h-22.626zm36.726 0V114.13h22.626v82.385h-22.626zm99.135 0v-43.397l-13.808 30.517h-12.067l-13.808-30.517v43.397h-22.626V114.13H651.4l17.752 38.756 17.869-38.756h24.599v82.385h-22.626zm38.351-38.872v-21.35h17.869v21.35h-17.869zm0 38.872v-21.35h17.869v21.35h-17.869zM115.825 89.513c-7.045 0-13.095-1.16-18.15-3.48-5.057-2.321-9.2-5.512-12.433-9.574-3.15-4.06-5.47-8.702-6.962-13.924-1.492-5.304-2.238-10.858-2.238-16.66V.498h24.243v45.379c0 3.895.497 7.542 1.492 10.94 1.077 3.316 2.735 6.01 4.972 8.081 2.321 2.072 5.346 3.108 9.076 3.108 3.812 0 6.837-1.036 9.075-3.108 2.321-2.155 3.978-4.89 4.973-8.205 1.077-3.398 1.616-7.004 1.616-10.816V.497h24.243v45.379c0 8.205-1.451 15.623-4.352 22.254-2.818 6.547-7.169 11.77-13.053 15.665-5.885 3.812-13.385 5.718-22.502 5.718zm120.611-.746V42.27l-14.794 32.697h-12.929L193.919 42.27v46.497h-24.243V.498h26.48l19.021 41.525L234.323.497h26.355v88.27h-24.242z"/><path fill="#65C525" d="M303.708 88.768V.498h38.042c4.309 0 8.288.87 11.934 2.61a29.525 29.525 0 019.449 7.087 30.987 30.987 0 016.091 9.821c1.492 3.647 2.238 7.335 2.238 11.065 0 5.222-1.243 10.153-3.73 14.795-2.403 4.641-5.801 8.454-10.194 11.438-4.31 2.9-9.365 4.35-15.167 4.35H327.95v27.104h-24.242zM327.95 40.53h12.805c1.492 0 2.859-.663 4.103-1.99 1.326-1.408 1.989-3.895 1.989-7.459 0-3.647-.746-6.133-2.238-7.46-1.492-1.325-2.984-1.989-4.476-1.989H327.95V40.53zm92.998 48.983c-6.714 0-12.805-1.243-18.275-3.73-5.471-2.569-10.195-5.967-14.173-10.194-3.895-4.31-6.92-9.117-9.075-14.421-2.072-5.388-3.108-10.941-3.108-16.66 0-5.885 1.119-11.48 3.356-16.784a46.264 46.264 0 019.324-14.173c4.061-4.227 8.827-7.542 14.297-9.946C408.847 1.202 414.897 0 421.445 0c6.713 0 12.805 1.285 18.275 3.854 5.47 2.487 10.153 5.885 14.048 10.195a46.32 46.32 0 018.951 14.546c2.155 5.304 3.232 10.774 3.232 16.41 0 5.802-1.118 11.355-3.356 16.66-2.155 5.304-5.263 10.07-9.324 14.297-3.978 4.144-8.703 7.46-14.173 9.946-5.47 2.404-11.52 3.605-18.15 3.605zm-20.016-44.756c0 3.895.705 7.625 2.114 11.189 1.491 3.564 3.729 6.465 6.713 8.703 3.066 2.237 6.879 3.356 11.437 3.356 4.724 0 8.537-1.16 11.438-3.48 2.983-2.321 5.18-5.264 6.589-8.828 1.409-3.647 2.113-7.376 2.113-11.189 0-3.978-.746-7.708-2.238-11.19-1.492-3.48-3.729-6.298-6.713-8.453-2.984-2.238-6.755-3.357-11.313-3.357-4.641 0-8.454 1.16-11.438 3.481-2.983 2.238-5.18 5.139-6.588 8.703-1.409 3.481-2.114 7.17-2.114 11.065zm113.834 44.756c-7.045 0-13.095-1.16-18.151-3.48-5.056-2.321-9.2-5.512-12.432-9.573-3.15-4.062-5.47-8.703-6.962-13.925-1.492-5.304-2.238-10.857-2.238-16.66V.498h24.243v45.379c0 3.895.497 7.542 1.491 10.94 1.078 3.316 2.736 6.01 4.973 8.081 2.321 2.072 5.346 3.108 9.076 3.108 3.812 0 6.837-1.036 9.075-3.108 2.321-2.155 3.978-4.89 4.973-8.205 1.077-3.398 1.616-7.004 1.616-10.816V.497h24.242v45.379c0 8.205-1.45 15.623-4.351 22.254-2.818 6.547-7.169 11.77-13.053 15.665-5.885 3.812-13.386 5.718-22.502 5.718zm49.002-45.627c0-5.387.995-10.65 2.984-15.789 2.072-5.221 5.056-9.946 8.951-14.173 3.896-4.227 8.62-7.583 14.173-10.07C595.511 1.284 601.852 0 608.897 0c8.453 0 15.83 1.782 22.129 5.346 6.298 3.481 10.981 8.123 14.048 13.924L626.55 32.45c-1.077-2.901-2.652-5.14-4.724-6.714-1.989-1.575-4.186-2.652-6.589-3.232-2.321-.663-4.6-.995-6.838-.995-4.641 0-8.453 1.16-11.437 3.481-2.901 2.32-5.056 5.263-6.465 8.827a28.569 28.569 0 00-2.113 10.816c0 4.062.787 7.874 2.362 11.438 1.657 3.564 3.978 6.465 6.962 8.703 3.066 2.155 6.713 3.232 10.94 3.232 2.238 0 4.517-.331 6.838-.994a19.008 19.008 0 006.34-3.481c1.906-1.575 3.356-3.689 4.351-6.34L645.944 69c-1.741 4.31-4.641 7.998-8.702 11.065-4.062 3.067-8.661 5.429-13.8 7.086-5.139 1.575-10.236 2.362-15.291 2.362-6.548 0-12.557-1.284-18.027-3.854-5.387-2.652-10.07-6.133-14.048-10.443-3.895-4.393-6.92-9.283-9.075-14.67-2.155-5.47-3.233-11.023-3.233-16.66zM693.02 89.513c-6.714 0-12.805-1.243-18.275-3.73-5.47-2.569-10.194-5.967-14.173-10.194-3.895-4.31-6.92-9.117-9.075-14.421-2.072-5.388-3.108-10.941-3.108-16.66 0-5.885 1.119-11.48 3.357-16.784a46.227 46.227 0 019.324-14.173c4.061-4.227 8.826-7.542 14.296-9.946C680.919 1.202 686.97 0 693.517 0c6.713 0 12.805 1.285 18.275 3.854 5.47 2.487 10.153 5.885 14.048 10.195a46.303 46.303 0 018.951 14.546c2.155 5.304 3.233 10.774 3.233 16.41 0 5.802-1.119 11.355-3.357 16.66-2.155 5.304-5.263 10.07-9.324 14.297-3.978 4.144-8.702 7.46-14.173 9.946-5.47 2.404-11.52 3.605-18.15 3.605zm-20.016-44.756c0 3.895.705 7.625 2.114 11.189 1.491 3.564 3.729 6.465 6.713 8.703 3.066 2.237 6.879 3.356 11.437 3.356 4.725 0 8.537-1.16 11.438-3.48 2.984-2.321 5.18-5.264 6.589-8.828 1.409-3.647 2.113-7.376 2.113-11.189 0-3.978-.746-7.708-2.238-11.19-1.491-3.48-3.729-6.298-6.713-8.453-2.983-2.238-6.755-3.357-11.313-3.357-4.641 0-8.454 1.16-11.437 3.481-2.984 2.238-5.18 5.139-6.589 8.703-1.409 3.481-2.114 7.17-2.114 11.065z"/><path fill="#9F7E69" d="M59.342 153.168H28.345l21.797 9.863v8.619l-21.797 9.863h30.997v16.163H.497v-17.654l27.682-12.681L.497 154.577v-17.572h58.845v16.163zM.497 112.927V94.858l58.845-18.731v16.41l-11.52 3.564v15.665l11.52 3.481v16.494L.497 112.927zm36.55-14.256l-20.72 5.221 20.72 5.471V98.671zm22.295-27.848H.497V54.66h58.845v16.162zM19.725 8.463l-.828 1.41c-.553.938-1.16 2.182-1.824 3.729a38.536 38.536 0 00-1.906 5.056c-.553 1.823-.829 3.619-.829 5.387 0 1.381.221 2.514.663 3.398.442.884 1.188 1.326 2.238 1.326 1.547 0 2.652-.967 3.315-2.9.608-1.99 1.465-4.67 2.57-8.04 1.105-3.647 2.376-6.796 3.812-9.449 1.436-2.652 3.288-4.697 5.553-6.133C34.699.81 37.655.092 41.357.092c3.536 0 6.52.635 8.951 1.906 2.376 1.271 4.282 2.984 5.719 5.139 1.436 2.155 2.486 4.559 3.15 7.21.607 2.653.911 5.36.911 8.123 0 2.818-.276 5.774-.829 8.869a67.621 67.621 0 01-2.403 8.868c-1.05 2.873-2.266 5.498-3.647 7.874L39.036 41.12l.995-1.658c.663-1.105 1.409-2.569 2.238-4.392.829-1.824 1.575-3.84 2.238-6.05.663-2.266.994-4.532.994-6.797 0-1.769-.221-2.984-.663-3.647-.497-.718-1.133-1.078-1.906-1.078-1.16 0-2.045.608-2.652 1.824-.663 1.215-1.271 2.818-1.824 4.807a668.278 668.278 0 01-2.072 6.465c-1.768 5.194-3.867 8.979-6.299 11.355-2.486 2.376-5.884 3.564-10.194 3.564-4.365 0-8.012-1.023-10.94-3.067-2.928-2.044-5.139-4.724-6.63-8.04C.774 31.036 0 27.416 0 23.549c0-2.873.36-5.636 1.077-8.288.663-2.708 1.492-5.222 2.487-7.543.994-2.376 1.934-4.448 2.818-6.216l13.343 6.962z"/></svg>