<svg xmlns="http://www.w3.org/2000/svg" baseProfile="tiny-ps" version="1.2" viewBox="0 0 676 395"><defs/><style>.shp0{fill:#87d657}.shp1{fill:#63c41c}.shp2{fill:#285723}.shp3{fill:#fffffe}</style><g id="Background"><path id="Path 1" d="M326.33 6.37c-3.24 3.54-7.9 10.3-10.5 15.25-2.56 4.88-7.23 14.95-10.37 22.38-3.14 7.42-6.71 15.52-7.94 18-1.22 2.47-2.86 4.8-3.62 5.17-.9.44-6.79-3.46-16.4-10.84-8.25-6.33-18.6-13.89-23-16.8-4.4-2.9-10.93-6.44-14.5-7.86-3.58-1.42-8.86-3.05-11.75-3.63-3.52-.7-5.91-.71-7.25-.04-1.74.87-2.08 2.34-2.6 11.25-.32 5.64-.08 19.7.55 31.25s.78 22.9.35 25.22c-.57 2.99-1.38 4.37-2.8 4.74-1.1.28-7.4.52-14 .53-6.6 0-22.91.35-36.25.76-22.15.68-24.25.9-24.25 2.5 0 .96 1.18 5.01 2.63 9 1.44 3.99 4.22 10.62 6.17 14.75 1.95 4.12 6.49 12 10.1 17.5 4.16 6.35 10.39 13.86 17.08 20.57 5.78 5.82 13.22 12.59 16.52 15.06 3.3 2.47 9.82 6.73 14.5 9.47 4.67 2.74 11.42 6.37 15 8.06 3.57 1.7 9.65 4.01 13.5 5.15 3.85 1.14 9.92 2.58 13.5 3.21 3.57.62 13.59 1.1 22.25 1.06 8.66-.05 16.76-.3 18-.56 1.24-.27 8.55-.97 16.25-1.56 7.7-.59 18.27-1.05 23.5-1.02 5.22.03 16.25.95 24.5 2.04s20.4 1.99 27 2.01c6.6.02 15.82-.63 20.5-1.45 4.67-.81 11.42-2.42 15-3.58 3.57-1.16 11-4.24 16.5-6.83 5.5-2.6 13.6-7.18 18-10.18s12.75-10.18 18.55-15.95c5.8-5.78 12.61-13.43 15.14-17 2.52-3.58 6.41-9.88 8.64-14 2.22-4.13 5.17-10.88 6.54-15 1.37-4.13 2.82-10.2 3.22-13.5.66-5.49.54-6.11-1.43-7.25-1.19-.69-7-1.75-12.91-2.35-5.91-.61-17.95-1.14-26.75-1.18-8.8-.04-18.93.47-22.5 1.14-3.58.66-6.73.93-7 .6-.28-.33.07-12.38.76-26.78s1.48-30.01 1.76-34.68c.28-4.68.08-9.18-.44-10-.85-1.33-1.92-1.3-9.27.27-4.79 1.02-12.12 3.63-17.31 6.16-4.95 2.43-15.19 8.72-22.75 13.99-7.56 5.27-14.24 9.47-14.84 9.33-.59-.14-3.44-6.1-6.33-13.25s-6.73-15.93-8.53-19.5c-1.81-3.58-5.2-9.43-7.54-13-2.33-3.58-6.67-8.43-9.63-10.79-2.96-2.35-5.9-4.27-6.55-4.25-.64.02-3.79 2.91-7 6.41z" class="shp0"/><path id="Path 2" d="M366.25 70.07c-1.79.51-4.71 1.83-6.5 2.93s-5.43 4.14-8.09 6.75c-2.67 2.61-6.47 7.22-8.46 10.25-1.99 3.02-5.31 9.32-7.37 14-2.06 4.67-4.81 12.55-6.11 17.5-1.65 6.3-2.62 8.55-3.22 7.5-.48-.83-3.7-9.15-7.17-18.5-3.62-9.75-8.34-20.34-11.07-24.83-2.62-4.31-6-9.37-7.51-11.25-2.61-3.25-2.89-3.35-5.5-2.06-1.54.76-3.7 3.3-4.89 5.75-1.22 2.49-2.67 8.49-3.36 13.89-.7 5.52-1.06 16.93-.86 27.25.2 9.76.13 17.77-.14 17.79-.28.02-4.55-3.18-9.5-7.11-4.95-3.94-10.8-8.39-13-9.89-2.2-1.51-6.03-3.86-8.5-5.23-2.48-1.37-7.43-3.44-11-4.6-3.58-1.16-8.3-2.4-10.5-2.75-2.2-.35-4.9-.89-6-1.21-1.88-.54-1.95-.27-1.21 4.34.43 2.7 1.95 8.28 3.39 12.41 1.43 4.12 4.39 10.87 6.57 15 2.19 4.12 6.04 10.42 8.55 14 2.52 3.57 7.76 9.83 11.64 13.89 3.88 4.07 10.66 10.08 15.06 13.35 4.4 3.28 11.15 7.46 15 9.3 3.85 1.84 10.6 4.37 15 5.62 6.52 1.86 10.4 2.28 21 2.25 10.51-.03 14.62-.48 21.5-2.39 4.67-1.3 11.65-3.65 15.5-5.24 3.85-1.58 10.37-4.72 14.5-6.98 4.12-2.26 10.87-6.37 15-9.14 4.12-2.77 9.91-7.32 12.85-10.1 2.94-2.78 7.5-7.99 10.13-11.56 2.62-3.58 6.16-8.98 7.86-12 1.7-3.03 4.25-8.88 5.66-13 1.41-4.13 2.89-10.17 3.28-13.42l.72-5.93c-13.37 1.14-19.35 2.4-22.5 3.67-3.03 1.22-9.33 4.96-14 8.31-4.68 3.35-10.75 7.29-13.5 8.74l-5 2.65c-.49-6.6-.16-12.12.41-16.52.56-4.4 1.29-12.5 1.61-18 .32-5.5.22-13.6-.22-18-.8-7.99-.8-8-3.8-8.18-1.65-.1-4.46.23-6.25.75z" class="shp1"/><path id="Path 3" d="M0 266.5V318c29.21.01 33.5-.35 37.43-1.75 2.9-1.03 7.15-3.81 10.3-6.75 3.69-3.43 5.83-6.41 6.83-9.5.81-2.48 1.45-7.88 1.44-12-.01-5.89-.55-8.63-2.51-12.75-1.65-3.47-4-6.35-6.95-8.5-2.45-1.79-4.48-3.59-4.5-4-.02-.41 2.13-2.89 4.79-5.5 3.85-3.79 5.08-5.86 6.11-10.25.78-3.33 1.02-7.28.59-10-.39-2.48-1.9-6.7-3.37-9.4-1.46-2.69-4.01-5.95-5.66-7.23-1.65-1.29-5.25-3.03-8-3.87-3.59-1.1-9.43-1.52-20.75-1.51L0 215v51.5zm390.97-46.21c-1.94.67-5.2 2.45-7.25 3.96-2.05 1.51-5.27 5.11-7.16 8-1.89 2.89-4.32 7.95-5.42 11.25-1.09 3.3-2.53 10.72-3.19 16.5-.69 5.94-.94 14.41-.59 19.5.34 4.95 1.04 11.25 1.55 14 .52 2.75 1.86 7.47 2.98 10.5 1.12 3.02 3.74 7.48 5.82 9.89 2.09 2.41 5.59 5.27 7.79 6.36 2.36 1.15 6.05 1.96 9 1.96 3 0 6.6-.8 9-2 2.2-1.1 4.9-2.94 6-4.09 1.1-1.14 2.34-1.87 2.75-1.6.41.26.76 1.72.77 3.23 0 1.51.34 3.33.75 4.04.45.8 2.25 1.18 4.73 1l4-.29v-56L396 266v10l15.5.5c0 19.71-.31 21.61-2.5 25.95-1.38 2.72-3.77 5.87-5.32 7-1.83 1.32-4.37 2.05-7.2 2.05-3.64 0-4.97-.58-7.96-3.5-1.97-1.93-4.47-5.86-5.55-8.75-1.09-2.89-2.46-9.64-3.05-15-.78-7.02-.78-12.84.01-20.75.6-6.05 1.7-13.03 2.45-15.5.74-2.48 2.26-6.3 3.38-8.5 1.11-2.2 3.31-5.27 4.88-6.82 1.57-1.55 3.76-3.06 4.86-3.35 1.1-.29 3.69-.04 5.75.57 2.06.6 4.67 2.34 5.8 3.85 1.13 1.51 2.44 4.32 2.91 6.25.47 1.92 1.12 5.19 1.45 7.25L412 251h11c-.88-8.14-1.76-12.53-2.53-15-.77-2.48-3.21-6.64-5.43-9.25-3.16-3.72-5.18-5.08-9.29-6.26-2.89-.83-6.6-1.49-8.25-1.46-1.65.03-4.59.6-6.53 1.26z" class="shp2"/><path id="Path 4" d="M12 240.5V256c18.57-.06 21.07-.42 23.5-1.96 1.65-1.05 3.88-3.4 4.96-5.22 1.24-2.11 1.97-5.21 2-8.5.03-3.73-.54-5.96-2.05-8-1.15-1.55-3.63-3.85-5.5-5.1-2.98-1.99-4.65-2.27-13.16-2.25L12 225v15.5z" class="shp3"/><path id="Path 5" d="M66.05 281.95L66 318h11l.07-40.5c4.98-9.15 7.84-12.98 9.57-14.4 1.72-1.43 4.87-3.16 7-3.83 2.12-.68 5.55-1.24 7.61-1.25L105 258v-12c-7.75 0-11.58.67-13.5 1.5-1.93.82-5.97 3.86-9 6.75L77 259.5l-.5-13-10.39-.6-.06 36.05zM108 276.5c0 18.41.4 30.53 1.06 32.25.59 1.51 2.5 4.21 4.25 5.99 2.14 2.18 4.84 3.62 8.19 4.37 2.85.64 6.94.82 9.5.41 2.47-.4 5.85-1.42 7.5-2.27 1.65-.85 4.35-2.6 6-3.89 1.65-1.3 3.35-2.02 3.78-1.61.43.41.76 2.44.75 4.5L149 320h10v-73h-10.25c-.24 48.36-.35 49.7-2.5 53.75-1.24 2.34-3.94 5.36-6 6.71-2.06 1.35-5.55 2.75-7.75 3.12-2.21.37-5.56.17-7.5-.45-1.93-.61-4.18-2.13-5-3.37-1.23-1.85-1.55-7.47-1.78-31.01l-.28-28.75H108v29.5zm59 7V320h10c0-31.75.49-42.16 1.18-45.25.72-3.18 2.48-6.82 4.47-9.24 1.81-2.19 4.77-5.02 6.57-6.28 2.19-1.53 4.69-2.28 7.53-2.26 3.26.02 5.01.71 7.5 2.95l3.25 2.91.5 57.17 10.5-.5c.41-39.74.07-53.43-.49-56.5-.56-3.03-1.84-6.63-2.86-8-1.01-1.38-3.37-3.52-5.24-4.76-1.88-1.25-5.21-2.54-7.41-2.86-2.4-.36-6.2.03-9.5.97-4.01 1.14-6.72 2.78-10 6.07-2.48 2.47-4.84 4.29-5.25 4.04-.41-.25-.75-2.94-.75-5.96V247h-10v36.5zm131.75-34.99c-2.74.86-6.36 3.08-8.55 5.24-2.18 2.16-4.52 5.87-5.51 8.75-.94 2.75-1.71 5.79-1.7 6.75.01 1.49.85 1.71 5.61 1.5 5.56-.25 5.6-.27 6.96-4.25.74-2.2 2.69-5.29 4.32-6.86 2.75-2.66 3.41-2.83 9.62-2.5 5.69.31 6.95.73 8.63 2.86 1.07 1.37 1.94 3.62 1.92 5-.02 1.37-.71 3.51-1.54 4.75-.83 1.24-3.2 2.95-5.26 3.81-2.06.85-7.58 2.91-12.25 4.58-4.68 1.66-9.83 4-11.45 5.19-1.63 1.19-4.22 3.97-5.77 6.17-1.54 2.2-3.07 5.8-3.39 8-.31 2.2-.03 6.02.62 8.5.75 2.82 2.56 5.82 4.84 8.05 2.55 2.47 5.31 3.94 9.15 4.87 3.34.8 7.27 1.04 10 .62 2.47-.38 6.86-2.01 9.75-3.62 2.89-1.6 5.41-2.58 5.61-2.17.2.41.65 1.99 1 3.5.61 2.62.92 2.75 6.64 2.75 3.3 0 6.01-.34 6.02-.75.02-.41-.66-2.44-1.5-4.5-1.22-3.02-1.52-8.59-1.5-28.5.02-23.91-.06-24.9-2.29-29.25-1.67-3.27-3.53-5.12-6.77-6.76-2.86-1.46-6.96-2.44-11.46-2.75-4.66-.32-8.59.02-11.75 1.02zM493 283.5V320h10c.04-38.36.46-51.3.97-53.5.55-2.38 2.16-5.12 3.98-6.75 1.68-1.51 3.72-2.75 4.55-2.75.82 0 2.4.9 3.5 2 1.91 1.91 2 3.33 2 31.5V320h11c0-47.83.29-53.68 1.5-56.5.82-1.93 2.51-4.19 3.75-5.03 1.57-1.06 3.13-1.29 5.15-.75 1.63.44 3.27 1.76 3.75 3.03.47 1.24.85 15.07.85 30.75V320h11c-.49-63.67-.61-65.66-2.5-68.33-1.1-1.55-3.58-3.29-5.5-3.87-1.93-.57-5.19-.76-7.25-.42-2.24.37-5.26 1.99-7.5 4.02l-3.75 3.41c-5.97-6.96-6.75-7.31-11.28-7.31-4.15 0-5.72.56-9.12 3.25-2.25 1.79-4.34 2.91-4.63 2.5-.29-.41-.51-1.99-.5-3.5.03-2.64-.18-2.75-4.97-2.75h-5v36.5zm150-35.16c-2.48.67-5.48 1.88-6.68 2.69-1.2.81-3.34 3.04-4.76 4.97-1.43 1.92-2.86 4.85-3.19 6.5-.33 1.65-.32 4.69.02 6.75.33 2.06 1.85 5.16 3.36 6.89 1.51 1.73 5.22 4.37 8.25 5.87 3.02 1.5 8.2 3.7 11.5 4.88 3.3 1.18 7.57 3.41 9.5 4.96 1.92 1.54 3.84 4.01 4.25 5.48.47 1.69.22 3.86-.69 5.92-.86 1.93-2.89 3.96-5 5-1.96.96-5.59 1.75-8.06 1.75-2.48 0-6.08-.68-8-1.5-1.93-.83-3.95-2.4-4.5-3.5-.55-1.1-1.34-4.5-1.75-7.56l-.75-5.55-10 .61c.45 6.97 1.01 10.69 1.54 12.75.53 2.06 2.42 5.35 4.21 7.31s5.27 4.33 7.75 5.25c2.82 1.06 7.3 1.67 12 1.64 5.9-.04 8.54-.57 12.38-2.5 2.69-1.35 6.2-4.03 7.8-5.95 1.87-2.25 3.12-5.11 3.5-8 .32-2.48.3-6.19-.05-8.25-.41-2.45-1.94-5.07-4.38-7.55-2.69-2.72-6.58-4.91-13.75-7.73-5.5-2.16-11.33-4.84-12.96-5.95-1.62-1.11-3.61-3.15-4.42-4.52-1.27-2.17-1.28-2.94-.04-5.89.78-1.86 2.66-4 4.17-4.75 1.51-.75 4.66-1.36 7-1.36 2.49.01 5.6.83 7.5 2 2.18 1.34 3.66 3.33 4.5 6.02l1.25 4.03L675 269c-.93-5.81-2.05-9.19-3.1-11.25-1.04-2.06-3.36-4.74-5.15-5.95-1.79-1.22-5.28-2.8-7.75-3.52-2.48-.72-6.08-1.27-8-1.23-1.93.05-5.53.63-8 1.29zm-419 1.91c-.01.69-.02 15.87-.04 33.75-.02 17.87-.02 33.51 0 34.75.04 2.03.53 2.25 5.04 2.25h5c-.02-36.18.36-42.78 1.46-46.5.82-2.75 2.96-6.75 4.76-8.89 1.8-2.15 4.97-4.73 7.03-5.75 2.06-1.02 4.87-1.86 6.25-1.86 1.37 0 3.85.67 5.5 1.5 1.7.85 3.65 3.02 4.5 5 1.21 2.82 1.5 8.67 1.5 30V321h10c-.03-58.83-.08-59.59-2.3-63.5-1.28-2.25-4.01-4.98-6.24-6.23-2.91-1.65-5.61-2.24-10.21-2.25-4.21-.01-7.48.6-10 1.89-2.06 1.05-5.33 3.51-7.25 5.47-1.93 1.95-3.84 3.34-4.25 3.09-.41-.26-.75-2.72-.75-5.47v-5c-8.33 0-10 .42-10 1.25zm224.05.1c-1.9.63-5.5 2.99-8 5.23-2.59 2.33-5.63 6.41-7.05 9.5-2.3 4.99-2.5 6.56-2.5 19.92 0 13.35.2 14.93 2.5 19.92 1.49 3.23 4.32 6.98 7 9.28 2.47 2.13 6.52 4.53 9 5.34 2.47.82 6.52 1.48 9 1.48 2.47 0 6.75-.78 9.5-1.73 3.07-1.07 6.77-3.49 9.58-6.27 3.04-3 5.22-6.36 6.5-10.02 1.53-4.37 1.91-8.17 1.88-18.5-.04-10.84-.4-13.91-2.19-18.5-1.37-3.52-3.69-6.91-6.46-9.44-2.37-2.16-6.11-4.74-8.31-5.72-2.61-1.17-6.25-1.77-10.5-1.72-3.58.05-8.05.6-9.95 1.23zm131.45.73c-2.2 1.1-5.69 3.67-7.76 5.71-2.06 2.04-4.73 5.96-5.92 8.71-1.66 3.84-2.27 7.67-2.64 16.5-.4 9.96-.16 12.5 1.81 19 1.91 6.28 3.11 8.32 7.39 12.57 3.77 3.73 6.37 5.38 9.87 6.25 2.61.65 6.66 1.19 9 1.2 2.34.01 6.27-.68 8.75-1.54 2.47-.87 6.02-3.01 7.87-4.77 1.86-1.77 4.44-5.46 5.74-8.21 1.3-2.75 2.37-6.24 2.38-7.75.01-2.71-.07-2.75-5.7-2.5-5.66.25-5.72.28-6.45 3.75-.4 1.92-1.31 4.53-2.03 5.79-.72 1.25-2.77 2.94-4.56 3.75-1.79.8-4.83 1.46-6.75 1.46-1.93 0-4.74-.61-6.25-1.37-1.51-.75-3.9-2.66-5.31-4.25-1.71-1.93-2.94-5.03-3.74-9.38-.65-3.58-1.19-7.51-1.19-8.75L574 285h42c.01-8.14-.68-13.2-1.52-16.5-.84-3.3-2.76-7.77-4.25-9.94-1.68-2.43-4.84-5.04-8.23-6.78-4.46-2.31-6.73-2.83-12-2.77-4.38.05-7.81.72-10.5 2.07z" class="shp2"/><path id="Path 6" d="M451.06 260.25c-3.61 1.83-4.92 3.29-6.96 7.75-2.2 4.8-2.52 6.9-2.53 16.5-.01 6.98.51 12.46 1.4 15 .78 2.2 2.79 5.5 4.47 7.32 1.83 1.99 4.67 3.72 7.06 4.3 2.88.71 4.98.63 7.5-.27 1.92-.7 4.77-2.41 6.31-3.81 1.55-1.39 3.54-4.79 4.43-7.54 1.05-3.24 1.6-8.35 1.57-14.5-.03-5.23-.56-11.41-1.18-13.75-.62-2.34-2.37-5.68-3.88-7.42-1.51-1.74-4.21-3.76-6-4.5-1.79-.73-4.26-1.33-5.5-1.33-1.24 0-4.25 1.01-6.69 2.25zm131.87.04c-1.89 1.26-4.41 4.07-5.61 6.25-1.2 2.18-2.32 5.31-2.5 6.96l-.32 3 29.5.5c-.01-4.26-.43-7.08-.94-9-.51-1.93-2.53-4.96-4.49-6.75-2.87-2.61-4.41-3.25-7.89-3.25-2.83 0-5.5.79-7.75 2.29zm-570.68 6.63c-.32.23-.51 9.56-.42 20.75L12 308c19.12-.48 20.14-.72 24.11-3.5 2.35-1.65 5.2-4.58 6.33-6.5 1.53-2.6 2.05-5.17 2.01-10-.04-4.99-.62-7.51-2.5-10.83-1.38-2.44-4.42-5.62-6.95-7.27-2.48-1.62-5.85-3-7.5-3.07-1.65-.07-5.62-.18-8.83-.23-3.21-.06-6.1.09-6.42.32zm297.25 17.96c-4.95 2.03-10.13 4.44-11.5 5.33-1.38.9-3.06 2.79-3.75 4.21S293 298.35 293 300s.56 4.12 1.25 5.5c.69 1.37 2.26 2.94 3.5 3.5 1.24.55 3.82 1 5.75 1 1.92 0 4.74-.48 6.25-1.06 1.51-.58 4.44-2.72 6.52-4.75l3.76-3.69c-.02-15.11-.37-19.46-.78-19.42-.41.05-4.8 1.76-9.75 3.8z" class="shp3"/><path id="Path 7" d="M173.4 332.77c-.61.4-1.62 1.74-2.25 2.98-.63 1.24-1.15 2.92-1.15 3.75 0 .82.79 1.51 1.75 1.52.96.01 2.76-1.34 4-3 1.24-1.66 2.36-3.42 2.48-3.91.13-.49-.54-1.17-1.5-1.5-.95-.34-1.84-.6-1.98-.59-.14 0-.75.34-1.35.75zm-111.79 1.71c-.34.83-.61 10.74-.61 22.02 0 11.27.22 21.17.5 22 .42 1.25 3.28 1.5 17.5 1.5 12.75 0 17.09-.31 17.35-1.25.2-.69.19-1.7-.01-2.25-.22-.62-5.7-.9-14.35-.75L68 376c0-15.17.32-17.11 1.5-17.5.82-.28 6.67-.5 13-.5 10.83 0 11.5-.12 11.5-2 0-1.9-.67-2-13-2H68v-16c27.93 0 28-.01 27.75-2.25-.25-2.22-.47-2.25-16.89-2.52-14.15-.24-16.73-.05-17.25 1.25zm151.76-.23c-.32.69-.31 2.04.02 3 .34.96 1.51 1.75 2.61 1.75 1.56 0 2-.67 2-3 0-2.35-.44-3-2.02-3-1.12 0-2.29.56-2.61 1.25zm117.78.94c-.52 1.27-4.28 11.22-8.37 22.1-4.08 10.89-7.5 20.45-7.6 21.25-.12.97.75 1.46 2.57 1.46 2.49 0 2.96-.61 5-6.5 1.24-3.57 2.7-6.73 3.25-7 .55-.28 5.21-.61 10.35-.75l9.35-.25c4.83 13.53 5.21 14.02 8.15 14.25 2.44.19 3.14-.15 3.12-1.5-.02-.96-4.02-11.43-8.9-23.25l-8.88-21.5c-6.48-.57-7.27-.22-8.04 1.69zm234.84 3.06c-.01 2.89-.28 6.15-.6 7.25-.55 1.86-.84 1.91-4.24.64-2.04-.76-5.19-1.11-7.15-.79-1.93.32-4.82 1.61-6.43 2.86-1.61 1.26-3.52 3.75-4.25 5.54-.72 1.79-1.32 6.06-1.32 9.5 0 3.97.64 7.5 1.75 9.68.96 1.88 2.87 4.27 4.25 5.29 1.37 1.02 4.3 2.12 6.5 2.44 2.79.41 5.06.05 7.5-1.17 2.36-1.19 3.58-1.39 3.75-.63.14.63 1.37 1.14 2.75 1.14 1.37 0 2.72-.68 3-1.5.27-.83.5-10.5.5-21.5 0-11.33-.43-20.87-1-22-.55-1.1-1.9-2-3-2-1.74 0-2 .67-2.01 5.25zm-424.49-1.58c-.46.36-.74 1.83-.63 3.25.11 1.45-.8 3.81-2.09 5.39l-2.28 2.81c4.35 3.75 4.5 4.68 4.5 15.88 0 6.6.39 12.79.87 13.75.48.96 2.16 2.1 3.75 2.54 1.58.43 3.67.54 4.63.25.96-.3 1.76-1.33 1.78-2.29.01-.96-1.11-2.31-2.5-3-1.72-.85-2.57-2.13-2.65-4-.07-1.51-.03-6.58.08-11.25.12-4.68.4-8.84.63-9.25.22-.41 1.31-.75 2.41-.75 1.33 0 2-.67 2-2s-.83-2.17-2.5-2.5c-2-.4-2.5-1.1-2.5-3.5 0-1.65-.23-3.68-.5-4.5-.28-.83-1.33-1.5-2.33-1.5-1.01 0-2.21.3-2.67.67zm57 0c-.46.36-.76 2.16-.67 4 .12 2.37-.41 3.69-1.83 4.58-1.11.69-2.01 1.92-2.01 2.75 0 .82.9 2.06 2.01 2.75 1.82 1.14 2 2.33 2 13.25 0 6.6.45 12.9 1 14 .55 1.1 2.24 2.26 3.75 2.58 1.51.33 3.76.33 5 0 1.39-.36 2.25-1.35 2.25-2.58 0-1.38-.92-2.23-2.97-2.75l-2.97-.75c-.55-23.49-.46-24.13 1.44-24.3 1.1-.09 2.39-.52 2.86-.94.47-.42.58-1.32.25-2.01-.34-.69-1.51-1.03-2.61-.75-1.75.44-2 0-2-3.5 0-2.2-.23-4.68-.5-5.5-.28-.83-1.33-1.5-2.33-1.5-1.01 0-2.21.3-2.67.67z" class="shp1"/><path id="Path 8" d="M334.2 343.26c-.63 1.23-2.01 4.62-3.06 7.53-1.05 2.9-1.97 6.17-2.03 7.25-.07 1.27.68 2.13 2.14 2.45 1.24.26 3.49.49 5 .5 1.51 0 3.42-.22 4.25-.49.82-.28 1.5-1.4 1.5-2.5s-.98-4.59-2.18-7.75c-1.21-3.16-2.7-6.53-3.34-7.49-1.06-1.61-1.23-1.57-2.28.5z" class="shp3"/><path id="Path 9" d="M268.5 345.45c-2.2.81-4.71 2.46-5.58 3.68-.86 1.21-1.53 2.91-1.48 3.78.05.88.87 1.7 1.83 1.84.95.14 2.82-.99 4.14-2.5 1.96-2.23 3.26-2.75 6.9-2.75 3.1 0 5.14.62 6.62 2 1.17 1.1 2.12 2.79 2.1 3.75-.02.96-.82 2.16-1.78 2.66-.96.5-4 1.18-6.75 1.51-2.75.33-6.46 1.04-8.25 1.59-1.79.54-4.17 2.23-5.28 3.74-1.12 1.51-2.02 4.21-2 6 .02 2.25.95 4.17 3.03 6.25 2.53 2.53 3.78 3 8 3 2.75 0 6.8-.68 9-1.5 3.56-1.33 4.17-1.33 5.5 0 .82.82 2.17 1.27 3 1 .82-.28 1.52-1.06 1.56-1.75.03-.69-.01-6.65-.09-13.25s-.55-13.01-1.06-14.25c-.5-1.24-1.92-2.92-3.16-3.74-1.24-.82-4.5-1.73-7.25-2.01-3.16-.33-6.47.02-9 .95zm-158.25 1.09c-1.79.8-3.99 2.92-4.9 4.71-1.45 2.86-1.48 3.66-.25 6.64.77 1.86 2.52 3.95 3.9 4.64 1.37.7 5.2 2.04 8.5 2.99 3.3.95 6.58 2.23 7.29 2.85.72.62 1.28 1.92 1.25 2.88-.02.96-1.05 2.43-2.29 3.26-1.24.83-3.94 1.5-6 1.5-2.83-.01-4.49-.75-6.75-3.01-1.65-1.65-3.9-3-5-3-1.24 0-2 .67-2.01 1.75 0 .96.79 2.85 1.75 4.19.97 1.34 3.22 3.03 5.01 3.75 1.79.72 5.05 1.31 7.25 1.31s5.64-.79 7.64-1.75 4.25-2.99 5-4.5c.75-1.51 1.38-3.76 1.39-5 .02-1.24-.81-3.38-1.85-4.75-1.04-1.38-3.75-3.06-6.03-3.75-2.28-.69-4.71-.95-5.4-.59-.71.38-.9.27-.44-.25.47-.52-.78-1.34-2.89-1.91-2.03-.55-4.2-1.76-4.81-2.69-.85-1.29-.74-2.17.44-3.75 1.14-1.51 2.68-2.06 5.75-2.06 3.19 0 4.74.59 6.45 2.46 1.24 1.35 3.04 2.48 4 2.5.96.02 2.01-.52 2.34-1.21.32-.69.09-2.26-.5-3.5-.6-1.24-2.67-2.93-4.59-3.75-1.93-.83-5.19-1.48-7.25-1.46-2.06.02-5.21.7-7 1.5zm55.95-.17c-1.82.77-4.2 2.68-5.29 4.26-1.1 1.58-2.48 4.44-3.09 6.37-.62 1.98-.82 5.89-.47 9 .37 3.24 1.56 6.83 2.89 8.74 1.24 1.78 3.95 3.91 6.01 4.75 2.06.83 5.32 1.51 7.25 1.51 1.92 0 4.96-.6 6.75-1.32 1.79-.73 4.26-2.53 5.5-4 1.43-1.71 1.98-3.24 1.5-4.22-.41-.84-1.31-1.74-2-2-.69-.25-2.81 1.11-4.72 3.04-2.44 2.47-4.36 3.5-6.5 3.5-1.67 0-4.17-.56-5.56-1.25-1.39-.69-3.15-2.6-3.91-4.25-.76-1.65-1.19-3.56-.97-4.25.28-.86 3.11-1.28 9.16-1.33 4.81-.05 10-.16 11.53-.25 1.54-.09 3.2-.85 3.7-1.67.49-.83.65-2.85.34-4.5s-1.3-4.3-2.19-5.9c-.9-1.59-2.76-3.76-4.13-4.82-1.41-1.1-4.67-2.13-7.5-2.37-3.01-.27-6.32.11-8.3.96zm62.87-.01c-1.88.7-4.02 2.14-4.74 3.21-.72 1.06-1.97 3.73-2.78 5.93-.8 2.2-1.49 5.8-1.51 8-.03 2.27.92 5.92 2.2 8.44 1.24 2.44 3.38 5.28 4.76 6.31 1.37 1.03 4.52 2.12 7 2.42 3 .37 5.75.01 8.25-1.06 2.06-.89 4.65-3.07 5.76-4.86 1.11-1.79 1.89-3.93 1.74-4.75-.15-.83-1.28-1.61-2.51-1.75-1.38-.15-2.49.42-2.89 1.5-.36.96-1.59 2.77-2.75 4.03-1.42 1.53-3.24 2.27-5.6 2.27-2.31 0-4.27-.77-5.76-2.27-1.24-1.26-2.71-4.19-3.25-6.53-.64-2.73-.65-5.77-.04-8.5.54-2.42 2.04-5.22 3.5-6.5 1.61-1.42 3.84-2.25 6.05-2.25 2.73 0 3.99.66 5.75 3.02 1.36 1.82 3.14 3.02 4.5 3 1.46-.01 2.25-.63 2.26-1.77 0-.96-.79-2.85-1.75-4.19-.97-1.34-3.22-3.03-5.01-3.75-1.79-.72-4.71-1.29-6.5-1.27-1.79.02-4.79.61-6.68 1.32zm156.13-.48c-.53.38-2.64 5.18-4.67 10.66s-4.11 10.75-4.61 11.71c-.51.96-1.26 1.59-1.67 1.39-.41-.2-2.66-5.6-5-12-3.88-10.62-4.47-11.64-6.75-11.64-1.72 0-2.5.55-2.49 1.75.01.96 2.6 8.62 5.75 17.02 5.66 15.05 5.78 15.27 8.74 15.25 2.95-.02 3.1-.3 8.76-15.27 3.16-8.39 5.73-15.99 5.7-16.89-.03-.91-.67-1.88-1.42-2.16-.76-.28-1.81-.2-2.34.18zm18.01.22c-1.81.51-4.19 2.16-5.29 3.66-1.09 1.51-1.97 3.53-1.95 4.49.02 1.07.81 1.75 2.03 1.75 1.1 0 3.35-1.35 5-3 2.26-2.26 3.92-3 6.75-3.01 2.06 0 4.76.67 6 1.5 1.5 1.01 2.25 2.51 2.25 4.51 0 1.65-.23 3-.5 3-.28 0-3.76.5-7.75 1.11-3.99.61-8.49 1.74-10 2.5-1.51.76-3.43 2.74-4.25 4.39-.83 1.65-1.5 3.67-1.5 4.5 0 .82.56 2.64 1.25 4.04.69 1.39 2.71 3.19 4.5 4 1.79.8 4.82 1.46 6.75 1.46 1.92 0 5.19-.75 7.25-1.66 2.94-1.31 4.13-1.41 5.5-.5.96.64 2.54 1.16 3.5 1.16 1.6 0 1.72-1.21 1.38-14.25-.2-7.84-.77-15.04-1.25-16-.48-.96-2.46-2.43-4.38-3.25-1.93-.83-5.41-1.46-7.75-1.41-2.34.05-5.73.51-7.54 1.01zm40.54.83c-3.35 1.85-3.88 1.91-5 .53-.69-.85-2.04-1.53-3-1.5-1.6.04-1.75 1.53-1.75 17.04v17h6c0-23.91.02-24.02 2.92-27 2-2.05 3.9-3 6-3 1.75 0 3.95.87 5.08 2 1.79 1.79 2 3.33 2 15v13h6c0-27.86-.03-28.03-2.75-31.08-2.09-2.35-3.83-3.2-7.25-3.57-3.34-.36-5.47.05-8.25 1.58zm36.25-.81c-1.38.55-3.74 2.21-5.25 3.69-1.67 1.64-3.18 4.64-3.88 7.69-.62 2.75-.83 7.02-.46 9.5.37 2.47 1.55 5.96 2.63 7.75 1.08 1.79 3.34 3.81 5.03 4.5 2 .82 3.3 2.21 3.75 4.02.37 1.52 1.24 2.98 1.93 3.25.69.26 1.25.93 1.25 1.48 0 .55-1.58 1.67-3.5 2.5-1.93.82-3.5 1.95-3.5 2.5s1.01 1.27 2.25 1.6c1.24.32 3.37.27 4.75-.12 1.37-.4 3.3-1.45 4.28-2.35.98-.9 1.77-2.64 1.75-3.88-.02-1.24-.93-2.7-2.03-3.25-1.1-.55-2-1.45-2-2s1.91-1.87 4.25-2.94c2.34-1.07 5.04-3.09 6-4.5.96-1.41 1.64-3.57 1.5-4.81-.17-1.5-1-2.33-2.5-2.5-1.44-.16-2.25.29-2.25 1.25 0 .82-1.1 2.62-2.45 4-1.56 1.58-3.58 2.5-5.5 2.5-1.68 0-3.95-.45-5.05-1-1.1-.55-2.68-2.58-3.5-4.5-.83-1.93-1.5-5.3-1.5-7.5s.45-5.13 1-6.5c.55-1.38 2.01-3.41 3.25-4.52 1.3-1.17 3.63-2.01 5.5-2 2.32.01 4.04.88 6 3.03 1.51 1.65 3.54 3 4.5 3 .96-.01 1.97-.46 2.25-1.01.27-.55-.18-2.35-1-4-.85-1.7-3.02-3.65-5-4.5-1.93-.83-4.96-1.47-6.75-1.44-1.79.04-4.38.51-5.75 1.06zm33.5-.02c-1.65.5-4.02 1.93-5.28 3.16-1.25 1.23-2.26 3.25-2.25 4.49.02 1.73.61 2.25 2.53 2.25 1.37 0 2.5-.45 2.5-1s1.01-1.91 2.25-3.02c1.52-1.37 3.62-2.01 6.5-2 2.9.01 4.89.66 6.25 2.02 1.1 1.1 2 2.9 2 4s-.34 2.2-.75 2.45c-.41.24-4.58 1.12-9.25 1.95-7.21 1.28-8.92 1.97-11.25 4.55-1.9 2.1-2.75 4.14-2.75 6.55 0 2.19.84 4.47 2.25 6.1 1.68 1.95 3.52 2.75 7.25 3.15 3.53.38 6.03.05 8.5-1.13 1.92-.91 4.29-1.65 5.25-1.64.96.01 1.75.47 1.75 1.02s1.12 1 2.5 1c1.37 0 2.52-.56 2.55-1.25.03-.69.03-6.76 0-13.5-.03-7.67-.52-13.2-1.3-14.79-.69-1.39-2.71-3.19-4.5-4-1.79-.8-5.16-1.42-7.5-1.37-2.34.04-5.6.5-7.25 1.01zm74 .76c-2.2.99-4.49 2.89-5.1 4.22-.6 1.33-.94 2.98-.75 3.67.19.69 1.14 1.25 2.1 1.26.96 0 2.99-1.35 4.5-3 2.18-2.39 3.58-3.01 6.75-3.01 2.93 0 4.67.67 6.5 2.5 2 2 2.3 2.9 1.5 4.5-.55 1.1-2.24 2.2-3.75 2.45-1.51.24-4.78.75-7.25 1.11-2.48.37-5.74 1.3-7.25 2.06-1.51.76-3.2 2.28-3.75 3.38-.55 1.1-1.01 3.69-1.03 5.75-.01 2.59.68 4.46 2.25 6.04 1.53 1.53 3.93 2.48 7.28 2.85 3.45.39 6.39.04 9.5-1.13 3.28-1.24 4.77-1.4 5.5-.59.55.61 2.01 1.11 3.25 1.1 2.21-.02 2.25-.22 2.19-12.27-.03-6.74-.59-13.83-1.25-15.75-.81-2.38-2.31-4.06-4.69-5.25-1.93-.96-5.53-1.74-8-1.73-2.48.01-6.3.84-8.5 1.84zm-374.13.15c-.4.56-.67 7.64-.61 15.75.06 8.11.14 15.3.17 15.99.04.69 1.08 1.26 2.32 1.26 1.96.01 2.35-.67 2.99-5.25.41-2.89.74-8.19.74-11.76 0-3.58-.17-8.86-.38-11.75-.34-4.5-.68-5.25-2.45-5.25-1.13 0-2.38.45-2.78 1.01z" class="shp1"/><path id="Path 10" d="M168.5 351.21c-1.1.63-2.55 1.85-3.22 2.72-.67.86-1.23 2.36-1.25 3.32-.02.96.53 1.89 1.22 2.05.69.17 4.4.21 8.25.09 3.85-.12 7.34-.25 7.75-.3.41-.05.77-.88.79-1.84.02-.96-1.22-3-2.75-4.54-1.87-1.87-3.78-2.76-5.79-2.72-1.65.04-3.9.59-5 1.22zm381.82 2c-2.24 2.58-2.54 3.79-2.44 9.87.11 6.28.4 7.2 3.12 9.92 1.73 1.73 4.06 3 5.5 3 1.37 0 3.4-.45 4.5-1s2.67-2.35 3.5-4c.82-1.65 1.5-5.03 1.5-7.5 0-2.48-.68-6.08-1.5-8-.83-1.93-2.06-3.81-2.75-4.18-.69-.37-2.97-.77-5.06-.87-3.11-.15-4.29.36-6.37 2.76z" class="shp3"/><path id="Path 11" d="M68 353.25c0 .41 5.74.68 12.75.59 7.01-.09 11.4-.3 9.75-.47-1.65-.17-7.39-.44-12.75-.59-5.36-.15-9.75.06-9.75.47zm97 7c0 .41 3.82.75 8.5.75 4.67 0 8.5-.34 8.5-.75s-3.82-.75-8.5-.75c-4.67 0-8.5.34-8.5.75zm175.87-.1c-1.01.67-3.81.85-7.25.47-3.5-.38-5.62-.24-5.62.38 0 .58 3.17 1 7.5 1 6 0 7.5-.3 7.5-1.5 0-.83-.11-1.49-.25-1.47-.14.02-.99.52-1.88 1.12z" class="shp0"/><path id="Path 12" d="M276.78 363.8c-1.26.18-3.97.75-6.03 1.27-2.29.57-4.18 1.81-4.86 3.18-.8 1.64-.8 2.86 0 4.5.68 1.37 2.39 2.49 4.36 2.86 1.93.37 4.43.06 6.16-.75 1.6-.75 3.78-2.49 4.84-3.86 1.23-1.59 1.71-3.32 1.34-4.75-.32-1.24-1.25-2.37-2.06-2.51-.81-.15-2.5-.12-3.75.06zm131.72 1.56c-2.75.63-5.56 1.48-6.25 1.89-.69.41-1.26 1.99-1.27 3.5-.01 1.51.56 3.32 1.25 4.02.7.69 3.18 1.26 5.52 1.25 3.05-.02 5.1-.73 7.25-2.52 2.29-1.9 3-3.33 3-6 0-3-.32-3.48-2.25-3.39-1.24.06-4.5.63-7.25 1.25zm109.5-.16c-2.48.55-5.3 1.73-6.28 2.64-.98.92-1.79 2.33-1.79 3.16 0 .82.81 2.28 1.79 3.22 1.12 1.09 3.39 1.74 6.11 1.75 3.51.03 4.88-.54 7.25-2.97 1.91-1.96 2.92-4.04 2.92-6 0-2.63-.34-2.99-2.75-2.89-1.51.06-4.78.55-7.25 1.09zm75.5.18c-2.75.66-5.56 1.53-6.25 1.91-.69.39-1.25 2.06-1.25 3.71 0 2 .67 3.33 2 4 1.1.55 3.82 1 6.05 1 2.99 0 4.68-.65 6.5-2.5 1.66-1.69 2.45-3.63 2.45-6 0-2.99-.33-3.49-2.25-3.41-1.24.04-4.5.62-7.25 1.29z" class="shp3"/><path id="Path 13" d="M68 375.25c0 .41 5.85.75 13 .75s13.18-.34 13.4-.75c.23-.41-5.62-.75-12.99-.75s-13.41.34-13.41.75z" class="shp0"/></g></svg>