<svg width="38" height="38" viewBox="0 0 38 38" fill="none" xmlns="http://www.w3.org/2000/svg">
<path d="M19 0C8.512 0 0 8.512 0 19C0 29.488 8.512 38 19 38H28.5V34.2H19C10.754 34.2 3.8 27.246 3.8 19C3.8 10.754 10.754 3.8 19 3.8C27.246 3.8 34.2 10.754 34.2 19V21.717C34.2 23.218 32.851 24.7 31.35 24.7C29.849 24.7 28.5 23.218 28.5 21.717V19C28.5 13.756 24.244 9.5 19 9.5C13.756 9.5 9.5 13.756 9.5 19C9.5 24.244 13.756 28.5 19 28.5C21.622 28.5 24.016 27.436 25.726 25.707C26.961 27.398 29.089 28.5 31.35 28.5C35.093 28.5 38 25.46 38 21.717V19C38 8.512 29.488 0 19 0ZM19 24.7C15.846 24.7 13.3 22.154 13.3 19C13.3 15.846 15.846 13.3 19 13.3C22.154 13.3 24.7 15.846 24.7 19C24.7 22.154 22.154 24.7 19 24.7Z" fill="#FFFAFA"/>
</svg>
