<svg width="48" height="40" viewBox="0 0 48 40" fill="none" xmlns="http://www.w3.org/2000/svg">
<path d="M0 0V4H40.6154V36H14.7692V40H48V36H44.3077V0H0ZM7.38831 6C5.43154 6.00737 3.5568 6.85247 2.17281 8.35105C0.788809 9.84963 0.0077841 11.8802 0 14C0 18.398 3.33046 22 7.38831 22C9.34409 21.9916 11.2175 21.1459 12.6001 19.6473C13.9827 18.1487 14.7624 16.1188 14.7692 14C14.7692 9.606 11.4425 6 7.38831 6ZM18.4615 8V12H27.6923V8H18.4615ZM31.3846 8V12H36.9231V8H31.3846ZM7.38831 10C9.44492 10 11.0769 11.766 11.0769 14C11.0769 16.24 9.44677 18 7.38831 18C5.32062 18 3.69231 16.24 3.69231 14C3.69231 11.766 5.32246 10 7.38831 10ZM18.4615 16V20H36.9231V16H18.4615ZM0 24V40H3.69231V28H9.23077V40H12.9231V29.316L16.7335 31.5C17.8135 32.12 19.1114 32.118 20.1895 31.5V31.504L26.7065 27.77L24.984 24.23L18.4652 27.964L12.7495 24.696C11.9518 24.2395 11.0634 24.0006 10.1612 24H0Z" fill="#65C525"/>
</svg>
