<svg width="100" height="100" viewBox="0 0 100 100" fill="none" xmlns="http://www.w3.org/2000/svg">
<path d="M60.3856 14.5646L60.3861 14.5636C60.9326 13.468 61.0224 12.2003 60.6357 11.0385C60.2491 9.87674 59.4175 8.91571 58.3233 8.36614L57.6501 9.70656L58.3196 8.3643C57.224 7.81773 55.9563 7.72794 54.7945 8.11462C53.6327 8.5013 52.6717 9.33288 52.1221 10.427L52.1209 10.4295L33.3715 47.9283C33.0492 48.5715 32.8814 49.2809 32.8814 50.0003C32.8814 50.7192 33.049 51.4283 33.3709 52.0711C33.3711 52.0715 33.3713 52.0719 33.3715 52.0723L52.1164 89.5619C52.1172 89.5636 52.118 89.5654 52.1189 89.5671C52.3879 90.1128 52.762 90.6001 53.2197 91.001C53.6788 91.4032 54.2131 91.7105 54.7915 91.9052C55.37 92.1 55.9813 92.1783 56.5902 92.1356C57.1991 92.093 57.7935 91.9303 58.3392 91.6568C58.8849 91.3834 59.3711 91.0046 59.7697 90.5424C60.1683 90.0801 60.4715 89.5435 60.6617 88.9636C60.852 88.3836 60.9256 87.7717 60.8782 87.1632C60.831 86.557 60.6648 85.9661 60.3891 85.4243C60.388 85.4222 60.3869 85.42 60.3859 85.4179L42.677 50.0001L60.3856 14.5646Z" fill="#9F7D69" stroke="#9F7D69" stroke-width="3"/>
</svg>
