<svg width="100" height="100" viewBox="0 0 100 100" fill="none" xmlns="http://www.w3.org/2000/svg">
<path d="M47.8855 10.4291L47.8849 10.4278C47.3353 9.33124 46.3727 8.49787 45.2087 8.11104C44.0447 7.7242 42.7747 7.81558 41.6781 8.36507L42.3501 9.70613L41.678 8.36511C40.5815 8.91466 39.7481 9.87731 39.3613 11.0413C38.9745 12.205 39.0658 13.4747 39.615 14.5712C39.6151 14.5714 39.6152 14.5716 39.6153 14.5719L57.3232 49.9999L39.6206 85.4175C39.6194 85.4197 39.6183 85.4219 39.6172 85.4241C39.3415 85.9659 39.1754 86.5567 39.1282 87.1627C39.0808 87.7713 39.1544 88.3832 39.3447 88.9631C39.5349 89.5431 39.8381 90.0797 40.2367 90.5419C40.6353 91.0042 41.1215 91.3829 41.6672 91.6564C42.2129 91.9298 42.8073 92.0926 43.4162 92.1352C44.0251 92.1779 44.6364 92.0995 45.2149 91.9048C45.7933 91.7101 46.3276 91.4027 46.7867 91.0006C47.2444 90.5996 47.6185 90.1123 47.8876 89.5666C47.8884 89.5649 47.8892 89.5632 47.8901 89.5615L66.6349 52.0719C66.9572 51.4287 67.125 50.7193 67.125 49.9999C67.125 49.2805 66.9572 48.571 66.6349 47.9279L47.8855 10.4291Z" fill="#9F7D69" stroke="#9F7D69" stroke-width="3"/>
</svg>
