<svg width="643" height="468" viewBox="0 0 643 468" fill="none" xmlns="http://www.w3.org/2000/svg">
<path d="M409.752 350.845V463.661H128.268C96.1963 463.661 70.1027 438.355 70.1027 407.253C70.1027 376.15 96.1962 350.845 128.268 350.845H409.752Z" fill="#F2F2F2"/>
<path d="M416.666 462.793C416.665 463.943 416.21 465.047 415.4 465.86C414.589 466.674 413.491 467.131 412.345 467.132H123.254C107.553 467.132 92.4949 460.869 81.3925 449.721C70.2902 438.572 64.053 423.452 64.053 407.686C64.053 391.921 70.2902 376.8 81.3925 365.652C92.4949 354.504 107.553 348.241 123.254 348.241H412.345C413.491 348.241 414.59 348.698 415.4 349.512C416.211 350.326 416.666 351.429 416.666 352.58C416.666 353.731 416.211 354.835 415.4 355.648C414.59 356.462 413.491 356.919 412.345 356.919H123.254C109.845 356.919 96.9852 362.268 87.5037 371.789C78.0221 381.309 72.6955 394.222 72.6955 407.686C72.6955 421.151 78.0221 434.063 87.5037 443.584C96.9852 453.105 109.845 458.454 123.254 458.454H412.345C413.491 458.454 414.589 458.911 415.4 459.725C416.21 460.539 416.665 461.642 416.666 462.793Z" fill="#65C525"/>
<path d="M409.752 376.879H107.265C107.036 376.879 106.816 376.788 106.654 376.625C106.492 376.462 106.401 376.242 106.401 376.011C106.401 375.781 106.492 375.561 106.654 375.398C106.816 375.235 107.036 375.144 107.265 375.144H409.752C409.981 375.144 410.201 375.235 410.363 375.398C410.525 375.561 410.616 375.781 410.616 376.011C410.616 376.242 410.525 376.462 410.363 376.625C410.201 376.788 409.981 376.879 409.752 376.879Z" fill="#CCCCCC"/>
<path d="M409.752 397.706H107.265C107.036 397.706 106.816 397.615 106.654 397.452C106.492 397.289 106.401 397.069 106.401 396.839C106.401 396.608 106.492 396.388 106.654 396.225C106.816 396.062 107.036 395.971 107.265 395.971H409.752C409.981 395.971 410.201 396.062 410.363 396.225C410.525 396.388 410.616 396.608 410.616 396.839C410.616 397.069 410.525 397.289 410.363 397.452C410.201 397.615 409.981 397.706 409.752 397.706Z" fill="#CCCCCC"/>
<path d="M409.752 418.534H107.265C107.036 418.534 106.816 418.442 106.654 418.28C106.492 418.117 106.401 417.896 106.401 417.666C106.401 417.436 106.492 417.215 106.654 417.053C106.816 416.89 107.036 416.798 107.265 416.798H409.752C409.981 416.798 410.201 416.89 410.363 417.053C410.525 417.215 410.616 417.436 410.616 417.666C410.616 417.896 410.525 418.117 410.363 418.28C410.201 418.442 409.981 418.534 409.752 418.534Z" fill="#CCCCCC"/>
<path d="M409.752 439.362H107.265C107.036 439.362 106.816 439.271 106.654 439.108C106.492 438.945 106.401 438.724 106.401 438.494C106.401 438.264 106.492 438.043 106.654 437.881C106.816 437.718 107.036 437.626 107.265 437.626H409.752C409.981 437.626 410.201 437.718 410.363 437.881C410.525 438.043 410.616 438.264 410.616 438.494C410.616 438.724 410.525 438.945 410.363 439.108C410.201 439.271 409.981 439.362 409.752 439.362Z" fill="#CCCCCC"/>
<path d="M627.298 372.081L556.806 459.929L337.62 282.591C312.646 262.386 308.14 226.242 327.574 202.023C347.008 177.804 383.138 174.538 408.112 194.743L627.298 372.081Z" fill="#F2F2F2"/>
<path d="M562.732 463.61C562.013 464.505 560.969 465.077 559.829 465.201C558.69 465.324 557.548 464.987 556.656 464.266L331.547 282.136C319.32 272.244 311.508 257.88 309.829 242.205C308.15 226.529 312.741 210.826 322.592 198.55C332.443 186.273 346.748 178.429 362.359 176.743C377.97 175.056 393.608 179.666 405.834 189.558L630.944 371.688C631.386 372.046 631.754 372.487 632.026 372.987C632.298 373.487 632.47 374.036 632.531 374.603C632.592 375.17 632.541 375.743 632.381 376.29C632.221 376.837 631.955 377.347 631.599 377.791C631.243 378.235 630.803 378.604 630.305 378.877C629.807 379.15 629.26 379.322 628.695 379.383C628.131 379.444 627.56 379.392 627.015 379.231C626.471 379.071 625.963 378.804 625.521 378.446L400.412 196.315C395.242 192.129 389.302 189.007 382.93 187.127C376.559 185.247 369.88 184.645 363.277 185.357C356.674 186.069 350.275 188.081 344.447 191.276C338.618 194.472 333.473 198.789 329.306 203.982C325.139 209.175 322.032 215.141 320.162 221.539C318.292 227.938 317.696 234.644 318.408 241.274C319.119 247.904 321.125 254.329 324.31 260.18C327.494 266.032 331.796 271.196 336.969 275.378L562.078 457.508C562.97 458.231 563.54 459.279 563.663 460.423C563.785 461.567 563.451 462.713 562.732 463.61Z" fill="#CCCCCC"/>
<path d="M611.031 392.354L375.49 201.784C375.402 201.713 375.328 201.624 375.274 201.524C375.22 201.424 375.185 201.315 375.173 201.201C375.161 201.088 375.171 200.973 375.203 200.864C375.235 200.755 375.288 200.653 375.359 200.564C375.431 200.475 375.519 200.402 375.618 200.347C375.718 200.292 375.827 200.258 375.94 200.246C376.053 200.234 376.167 200.244 376.276 200.276C376.385 200.308 376.486 200.361 376.575 200.433L612.115 391.003C612.204 391.074 612.277 391.162 612.332 391.262C612.386 391.362 612.421 391.472 612.433 391.586C612.445 391.699 612.435 391.814 612.403 391.923C612.371 392.033 612.318 392.135 612.247 392.223C612.175 392.312 612.087 392.386 611.988 392.441C611.888 392.495 611.779 392.53 611.666 392.542C611.553 392.554 611.438 392.544 611.33 392.511C611.221 392.479 611.119 392.426 611.031 392.354V392.354Z" fill="#CCCCCC"/>
<path d="M598.017 408.572L362.476 218.002C362.298 217.858 362.184 217.648 362.16 217.42C362.136 217.191 362.203 216.962 362.346 216.783C362.49 216.604 362.699 216.489 362.926 216.465C363.154 216.44 363.382 216.507 363.561 216.651L599.101 407.221C599.19 407.292 599.263 407.38 599.318 407.48C599.372 407.58 599.407 407.69 599.419 407.804C599.431 407.917 599.421 408.032 599.389 408.141C599.357 408.251 599.304 408.353 599.233 408.442C599.161 408.53 599.073 408.604 598.974 408.659C598.874 408.713 598.765 408.748 598.652 408.76C598.539 408.772 598.424 408.762 598.316 408.729C598.207 408.697 598.105 408.644 598.017 408.572Z" fill="#CCCCCC"/>
<path d="M585.003 424.789L349.462 234.219C349.284 234.075 349.17 233.865 349.145 233.636C349.121 233.408 349.188 233.178 349.332 232.999C349.475 232.82 349.684 232.705 349.912 232.681C350.14 232.656 350.368 232.723 350.547 232.868L586.087 423.438C586.176 423.509 586.249 423.597 586.303 423.697C586.358 423.797 586.392 423.907 586.404 424.02C586.416 424.134 586.406 424.248 586.374 424.358C586.342 424.467 586.289 424.569 586.218 424.658C586.147 424.747 586.059 424.82 585.959 424.875C585.86 424.93 585.75 424.964 585.637 424.976C585.525 424.988 585.41 424.978 585.302 424.946C585.193 424.914 585.091 424.861 585.003 424.789V424.789Z" fill="#CCCCCC"/>
<path d="M571.989 441.008L336.448 250.439C336.36 250.367 336.287 250.279 336.232 250.179C336.178 250.079 336.144 249.969 336.131 249.856C336.119 249.742 336.13 249.628 336.161 249.518C336.193 249.409 336.247 249.307 336.318 249.218C336.389 249.13 336.477 249.056 336.577 249.001C336.676 248.947 336.785 248.912 336.898 248.9C337.011 248.888 337.125 248.898 337.234 248.93C337.343 248.962 337.445 249.016 337.533 249.087L573.073 439.657C573.162 439.728 573.235 439.816 573.29 439.916C573.344 440.016 573.379 440.126 573.391 440.24C573.403 440.353 573.393 440.468 573.361 440.577C573.329 440.687 573.276 440.789 573.205 440.878C573.134 440.966 573.046 441.04 572.946 441.095C572.846 441.15 572.737 441.184 572.624 441.196C572.511 441.208 572.397 441.198 572.288 441.166C572.179 441.133 572.077 441.08 571.989 441.008Z" fill="#CCCCCC"/>
<path d="M642.136 467.999H0.864247C0.635035 467.999 0.415209 467.907 0.253132 467.745C0.0910537 467.582 0 467.361 0 467.131C0 466.901 0.0910537 466.68 0.253132 466.517C0.415209 466.355 0.635035 466.263 0.864247 466.263H642.136C642.365 466.263 642.585 466.355 642.747 466.517C642.909 466.68 643 466.901 643 467.131C643 467.361 642.909 467.582 642.747 467.745C642.585 467.907 642.365 467.999 642.136 467.999Z" fill="#CCCCCC"/>
<path d="M292.186 338.988L282.306 338.987L277.607 300.72L292.189 300.721L292.186 338.988Z" fill="#FFB8B8"/>
<path d="M275.248 336.152H294.302V348.199H263.25C263.25 346.617 263.56 345.05 264.163 343.589C264.766 342.127 265.65 340.799 266.764 339.68C267.878 338.562 269.201 337.674 270.656 337.069C272.112 336.463 273.672 336.152 275.248 336.152Z" fill="#2F2E41"/>
<path d="M191.246 338.988L181.366 338.987L176.667 300.72L191.249 300.721L191.246 338.988Z" fill="#FFB8B8"/>
<path d="M174.308 336.152H193.363V348.199H162.311C162.311 346.617 162.621 345.05 163.224 343.589C163.827 342.127 164.711 340.799 165.825 339.68C166.939 338.562 168.261 337.674 169.717 337.069C171.173 336.463 172.733 336.152 174.308 336.152Z" fill="#2F2E41"/>
<path d="M224.247 55.1347V50.7956C224.247 43.373 227.184 36.2544 232.411 31.0058C237.638 25.7572 244.727 22.8086 252.119 22.8086H252.119C259.511 22.8086 266.6 25.7572 271.827 31.0058C277.055 36.2544 279.991 43.373 279.991 50.7956V55.1347C279.991 60.4859 277.874 65.6179 274.106 69.4018C270.337 73.1857 265.226 75.3114 259.897 75.3114H244.341C241.702 75.3114 239.089 74.7895 236.651 73.7756C234.213 72.7616 231.998 71.2754 230.132 69.4018C228.266 67.5282 226.786 65.304 225.777 62.856C224.767 60.4081 224.247 57.7844 224.247 55.1347Z" fill="#2F2E41"/>
<path d="M252.119 76.8051C263.842 76.8051 273.346 67.2623 273.346 55.4907C273.346 43.7191 263.842 34.1763 252.119 34.1763C240.396 34.1763 230.892 43.7191 230.892 55.4907C230.892 67.2623 240.396 76.8051 252.119 76.8051Z" fill="#FFB8B8"/>
<path d="M136.659 128.745C137.52 127.929 138.549 127.311 139.674 126.937C140.799 126.563 141.991 126.441 143.168 126.58C144.345 126.719 145.477 127.115 146.484 127.741C147.492 128.366 148.351 129.206 149 130.201L167.197 126.745L171.986 137.336L146.22 141.855C144.483 142.839 142.447 143.15 140.497 142.728C138.547 142.306 136.819 141.18 135.641 139.564C134.462 137.949 133.915 135.955 134.102 133.961C134.29 131.967 135.2 130.111 136.659 128.745V128.745Z" fill="#FFB8B8"/>
<path d="M235.57 90.2272L235.808 90.5893L205.969 110.327L155.62 126.471C154.952 126.687 154.38 127.128 154 127.719C153.62 128.311 153.455 129.016 153.535 129.715L154.633 139.215C154.682 139.636 154.818 140.041 155.032 140.406C155.246 140.771 155.533 141.086 155.876 141.333C156.218 141.58 156.609 141.752 157.021 141.838C157.434 141.924 157.86 141.923 158.272 141.835L205.659 131.635C207.952 131.145 210.12 130.186 212.029 128.819L245.552 104.87C246.767 103.997 247.737 102.823 248.366 101.463C248.996 100.102 249.265 98.6008 249.146 97.1052C249.023 95.6075 248.513 94.1678 247.668 92.9276C246.823 91.6874 245.671 90.6896 244.325 90.0321C242.98 89.3747 241.487 89.0803 239.993 89.178C238.5 89.2757 237.057 89.7621 235.808 90.5893L235.57 90.2272Z" fill="#CCCCCC"/>
<path d="M282.482 328.128C281.724 328.129 280.982 327.907 280.347 327.491C279.712 327.074 279.211 326.481 278.906 325.784L233.611 213.402C233.505 213.158 233.328 212.952 233.102 212.813C232.877 212.674 232.614 212.607 232.35 212.622C232.085 212.637 231.832 212.733 231.623 212.897C231.415 213.061 231.261 213.285 231.184 213.539L194.23 322.947C194.074 323.457 193.816 323.928 193.471 324.334C193.127 324.739 192.704 325.069 192.228 325.304C191.752 325.539 191.233 325.674 190.703 325.7C190.173 325.726 189.643 325.643 189.147 325.456L176.755 320.79C176.082 320.539 175.492 320.106 175.05 319.538C174.608 318.971 174.331 318.291 174.251 317.575C168.676 268.811 217.291 145.722 217.782 144.485L217.918 144.142L262.235 153.986L262.327 154.086C280.007 173.454 294.54 295.611 297.274 319.903C297.376 320.78 297.177 321.666 296.71 322.415C296.244 323.164 295.537 323.731 294.706 324.022L283.768 327.906C283.355 328.053 282.92 328.128 282.482 328.128Z" fill="#2F2E41"/>
<path d="M244.299 157.947C233.562 157.947 221.591 155.798 217.907 146.925L217.822 146.722L217.936 146.533C220.845 141.741 224.689 133.567 222.623 132.033C218.553 129.011 216.578 124.04 216.753 117.258C217.134 102.535 227.125 89.4629 241.614 84.7302H241.614C245.659 83.4305 249.774 82.3664 253.941 81.5432C256.978 80.9278 260.114 80.9955 263.122 81.7415C266.131 82.4875 268.937 83.8932 271.34 85.8577C273.774 87.8352 275.741 90.3292 277.1 93.1607C278.459 95.9921 279.177 99.0908 279.202 102.234C279.353 117.968 276.941 139.883 264.585 154.928C264.006 155.626 263.2 156.096 262.31 156.257C256.365 157.336 250.34 157.902 244.299 157.947Z" fill="#CCCCCC"/>
<path d="M240.305 157.358C240.889 155.253 242.277 153.465 244.167 152.382C246.057 151.299 248.296 151.009 250.398 151.574C250.827 151.695 251.246 151.85 251.649 152.04L265.466 139.414L275.074 145.914L255.316 163.471C254.424 165.086 253.019 166.355 251.326 167.077C249.633 167.798 247.748 167.93 245.971 167.451C244.936 167.167 243.967 166.679 243.121 166.017C242.275 165.354 241.568 164.53 241.041 163.591C240.515 162.652 240.178 161.618 240.052 160.548C239.925 159.478 240.011 158.394 240.305 157.358Z" fill="#FFB8B8"/>
<path d="M263.277 157.518C262.381 157.519 261.512 157.207 260.818 156.637L255.369 152.166C254.915 151.794 254.551 151.322 254.304 150.788C254.056 150.254 253.933 149.671 253.942 149.082C253.951 148.493 254.092 147.914 254.356 147.388C254.62 146.862 254.998 146.402 255.464 146.044L278.316 128.445C278.587 128.235 278.764 127.927 278.81 127.586C278.856 127.246 278.766 126.901 278.561 126.627L264.456 107.903C262.817 105.734 261.995 103.054 262.136 100.336C262.276 97.6177 263.37 95.037 265.223 93.0506C267.175 90.9339 269.848 89.6314 272.711 89.4014C275.575 89.1714 278.42 90.0308 280.682 91.8091L280.772 91.9036L295.5 113.08C297.093 114.334 298.375 115.941 299.247 117.775C300.119 119.609 300.557 121.62 300.527 123.652C300.497 125.684 300 127.682 299.074 129.489C298.148 131.295 296.818 132.863 295.189 134.069L265.592 156.752C264.922 157.25 264.111 157.518 263.277 157.518Z" fill="#CCCCCC"/>
<path d="M233.317 49.4948V38.9195L252.119 30.6753L270.047 38.9195V49.4948C270.047 49.9552 269.865 50.3966 269.541 50.7221C269.217 51.0476 268.777 51.2305 268.319 51.2305H235.045C234.587 51.2305 234.147 51.0476 233.823 50.7221C233.499 50.3966 233.317 49.9552 233.317 49.4948Z" fill="#2F2E41"/>
<path d="M251.256 24.2117C248.491 15.3266 254.297 5.14378 262.881 1.62681C271.464 -1.89015 281.733 0.568315 288.975 6.37887C296.218 12.1894 300.712 20.8925 303.093 29.889C305.474 38.8854 305.925 48.2665 306.365 57.5647C316.911 59.5099 324.085 72.0696 320.431 82.1919C316.778 92.3141 303.256 97.3428 293.918 92.0522C284.58 86.7616 281.875 72.5398 288.615 64.1662C291.804 60.204 293.585 55.2867 293.677 50.1931C293.768 45.0995 292.165 40.1208 289.121 36.0455C286.076 31.9703 281.765 29.0314 276.869 27.6944C271.974 26.3574 266.774 26.6986 262.093 28.6641C256.896 30.8466 250.374 25.176 251.256 24.2117Z" fill="#2F2E41"/>
<path d="M132.761 87.7206C120.135 87.6374 107.666 84.8954 96.1614 79.6718C95.4765 79.3653 94.8952 78.8654 94.4883 78.233C94.0814 77.6007 93.8664 76.8631 93.8695 76.1102V44.5062C93.8707 43.4709 94.2808 42.4782 95.0099 41.7461C95.739 41.014 96.7275 40.6022 97.7587 40.6011H167.763C168.794 40.6022 169.782 41.0141 170.511 41.7462C171.241 42.4783 171.651 43.4709 171.652 44.5062V76.1103C171.655 76.8632 171.44 77.6007 171.033 78.2331C170.626 78.8654 170.045 79.3653 169.36 79.6718C157.855 84.8954 145.387 87.6374 132.761 87.7206Z" fill="#65C525"/>
<path d="M132.751 62.1191C132.232 62.1196 131.718 62.0159 131.24 61.814L75.7275 38.2966C75.0116 37.9934 74.4026 37.4818 73.979 36.8277C73.5554 36.1737 73.3366 35.4073 73.3508 34.6272C73.365 33.8472 73.6117 33.0893 74.0589 32.4513C74.5061 31.8133 75.1333 31.3245 75.8598 31.0478L131.373 9.90109C132.267 9.55893 133.255 9.56104 134.148 9.90703L188.917 31.0536C189.64 31.3326 190.263 31.8216 190.707 32.458C191.151 33.0945 191.396 33.8495 191.41 34.6265C191.424 35.4035 191.207 36.1671 190.787 36.8196C190.367 37.4721 189.762 37.9839 189.05 38.2894L134.281 61.8064C133.797 62.0132 133.277 62.1196 132.751 62.1191Z" fill="#65C525"/>
<path d="M100.351 81.8215C103.215 81.8215 105.537 79.4903 105.537 76.6146C105.537 73.7389 103.215 71.4077 100.351 71.4077C97.4875 71.4077 95.1659 73.7389 95.1659 76.6146C95.1659 79.4903 97.4875 81.8215 100.351 81.8215Z" fill="#3F3D56"/>
<path opacity="0.2" d="M189.24 34.9496L134.47 58.4667C134.043 58.65 133.583 58.7451 133.119 58.7462C132.655 58.7473 132.195 58.6545 131.767 58.4732L76.2546 34.9565C75.5574 34.6682 74.9758 34.1549 74.6016 33.4976C74.3568 33.9238 74.2051 34.3974 74.1566 34.887C74.1081 35.3766 74.1639 35.8709 74.3202 36.3372C74.4765 36.8035 74.7299 37.231 75.0634 37.5915C75.3969 37.9519 75.8029 38.237 76.2546 38.4277L131.767 61.9445C132.195 62.1257 132.655 62.2186 133.119 62.2174C133.583 62.2163 134.043 62.1212 134.47 61.9379L189.24 38.4209C189.689 38.2284 190.093 37.9424 190.424 37.5818C190.755 37.2212 191.006 36.7942 191.161 36.3289C191.316 35.8637 191.37 35.3707 191.321 34.8827C191.272 34.3946 191.121 33.9225 190.877 33.4976C190.506 34.1495 189.93 34.66 189.24 34.9496Z" fill="black"/>
<path d="M100.787 76.595C101.016 76.595 101.236 76.5036 101.398 76.3408C101.56 76.1781 101.651 75.9573 101.651 75.7272V46.6889L130.155 36.262C130.384 36.2654 130.606 36.1773 130.77 36.017C130.935 35.8566 131.029 35.6373 131.032 35.4071C131.036 35.1769 130.948 34.9549 130.788 34.7897C130.629 34.6245 130.41 34.5298 130.181 34.5264L101.677 44.9533C101.448 44.948 101.22 44.9895 101.007 45.0753C100.794 45.1611 100.6 45.2894 100.438 45.4524C100.275 45.6135 100.144 45.8059 100.056 46.0183C99.9674 46.2307 99.9222 46.4587 99.9229 46.6889V75.7272C99.9229 75.9573 100.014 76.1781 100.176 76.3408C100.338 76.5036 100.558 76.595 100.787 76.595Z" fill="#3F3D56"/>
</svg>
