<svg width="934" height="696" viewBox="0 0 934 696" fill="none" xmlns="http://www.w3.org/2000/svg">
<path d="M0 612.107H934V611.64H0V612.107Z" fill="#EEEEEE"/>
<path d="M778.543 641.705H840.415V642.172H778.543V641.705Z" fill="#EEEEEE"/>
<path d="M602.48 646.773H618.719V647.24H602.48V646.773Z" fill="#EEEEEE"/>
<path d="M740.823 624.36H776.673V624.827H740.823V624.36Z" fill="#EEEEEE"/>
<path d="M97.9934 627.965H178.679V627.498H97.9934V627.965Z" fill="#EEEEEE"/>
<path d="M195.311 627.498H207.141V627.965H195.311V627.498Z" fill="#EEEEEE"/>
<path d="M245.588 635.851H420.574V635.384H245.588V635.851Z" fill="#EEEEEE"/>
<path d="M82.0336 0.468811C76.4115 0.468811 71.8377 5.0415 71.8377 10.662V517.671C71.8377 523.293 76.4115 527.866 82.0336 527.866H442.742C448.363 527.866 452.936 523.293 452.936 517.671V10.662C452.936 5.0415 448.363 0.468811 442.742 0.468811H82.0336ZM442.742 528.333H82.0336C76.1539 528.333 71.3707 523.552 71.3707 517.671V10.662C71.3707 4.78558 76.1539 0.00183105 82.0336 0.00183105H442.742C448.619 0.00183105 453.403 4.78558 453.403 10.662V517.671C453.403 523.552 448.619 528.333 442.742 528.333Z" fill="#EEEEEE"/>
<path d="M486.076 0.468811C480.455 0.468811 475.882 5.0415 475.882 10.662V517.671C475.882 523.293 480.455 527.866 486.076 527.866H846.783C852.406 527.866 856.98 523.293 856.98 517.671V10.662C856.98 5.0415 852.406 0.468811 846.783 0.468811H486.076ZM846.783 528.333H486.076C480.197 528.333 475.415 523.552 475.415 517.671V10.662C475.415 4.78558 480.197 0.00183105 486.076 0.00183105H846.783C852.663 0.00183105 857.447 4.78558 857.447 10.662V517.671C857.447 523.552 852.663 528.333 846.783 528.333Z" fill="#EEEEEE"/>
<path d="M768.647 547.036C768.647 547.036 754.291 518.945 770.692 491.251C787.095 463.558 791.849 457.035 781.392 451.362C770.937 445.688 766.14 473.516 766.14 473.516C766.14 473.516 757.326 454.372 764.604 434.336C771.882 414.301 776.445 381.669 766.506 378.168C756.568 374.668 764.61 418.878 755.985 433.946C755.985 433.946 748.743 417.17 747.551 401.078C746.359 384.986 748.222 359.291 740.372 352.7C732.525 346.11 727.496 350.669 735.209 386.182C742.922 421.694 742.866 450.561 742.866 450.561C742.866 450.561 725.83 403.977 714.398 402.619C702.966 401.259 702.979 416.347 712.765 429.431C722.552 442.516 741.424 465.956 744.521 478.019C744.521 478.019 725.823 442.962 709.003 453.707C692.182 464.451 723.643 485.625 737.664 493.276C751.685 500.927 761.423 548.889 761.423 548.889L768.647 547.036Z" fill="#E3E3E1"/>
<path d="M757.313 558.558C757.313 558.558 771.292 530.276 754.521 502.804C737.75 475.333 732.91 468.874 743.288 463.061C753.667 457.248 758.836 485.009 758.836 485.009C758.836 485.009 767.393 465.749 759.848 445.813C752.303 425.877 747.303 393.31 757.194 389.677C767.085 386.044 759.635 430.356 768.46 445.308C768.46 445.308 775.478 428.438 776.455 412.331C777.43 396.224 775.226 370.555 782.985 363.86C790.743 357.164 795.833 361.656 788.595 397.27C781.358 432.881 781.801 461.746 781.801 461.746C781.801 461.746 798.211 414.938 809.625 413.427C821.038 411.916 821.225 426.999 811.616 440.215C802.005 453.43 783.447 477.121 780.514 489.223C780.514 489.223 798.742 453.919 815.703 464.438C832.665 474.956 801.491 496.551 787.573 504.388C773.656 512.226 764.561 560.313 764.561 560.313L757.313 558.558Z" fill="#E9E9E8"/>
<path d="M821.785 538.397H706.309L715.655 612.512H812.44L821.785 538.397Z" fill="#F4F4F4"/>
<path d="M405.44 302.093H615.805V69.3217H405.44V302.093Z" fill="#ECECEB"/>
<path d="M414.696 293.351H607.1V78.5415H414.696V293.351Z" fill="#F7F8F8"/>
<path d="M469.074 78.5416L414.696 282.181V171.937L439.578 78.5416H469.074Z" fill="white"/>
<path d="M493.376 78.5415L436.029 293.351H425.213L482.56 78.5415H493.376Z" fill="white"/>
<path d="M607.1 137.119V247.381L594.921 293.351H565.425L607.1 137.119Z" fill="white"/>
<path d="M506.887 302.093H514.359V69.3217H506.887V302.093Z" fill="#ECECEB"/>
<path d="M409.092 124.025H611.77V116.553H409.092V124.025Z" fill="#ECECEB"/>
<path d="M117.768 302.093H328.133V69.3217H117.768V302.093Z" fill="#ECECEB"/>
<path d="M127.024 293.351H319.428V78.5415H127.024V293.351Z" fill="#F7F8F8"/>
<path d="M181.401 78.5416L127.024 282.181V171.937L151.906 78.5416H181.401Z" fill="white"/>
<path d="M205.704 78.5415L148.356 293.351H137.541L194.888 78.5415H205.704Z" fill="white"/>
<path d="M319.428 137.119V247.381L307.249 293.351H277.753L319.428 137.119Z" fill="white"/>
<path d="M219.215 302.093H226.687V69.3217H219.215V302.093Z" fill="#ECECEB"/>
<path d="M121.42 124.025H324.098V116.553H121.42V124.025Z" fill="#ECECEB"/>
<path d="M829.185 674.848C829.185 686.53 667.029 696 467 696C266.971 696 104.815 686.53 104.815 674.848C104.815 663.168 266.971 653.698 467 653.698C667.029 653.698 829.185 663.168 829.185 674.848Z" fill="#F8F8F9"/>
<path d="M712.939 612.512H426.229C418.85 612.512 413.334 606.525 413.911 599.142L450.055 135.449C450.631 128.065 457.079 122.079 464.458 122.079H751.168C758.546 122.079 764.062 128.065 763.487 135.449L727.341 599.142C726.766 606.525 720.318 612.512 712.939 612.512Z" fill="#252D32"/>
<path d="M712.939 612.512H426.229C419.211 612.512 413.878 607.095 413.87 600.212C413.868 599.859 413.883 599.502 413.911 599.142L420.164 518.925C423.644 508.137 425.732 499.803 425.437 496.018C425.218 493.237 424.227 490.544 422.579 487.938L430.738 383.257H449.467L433.105 593.159H709.08L744.293 141.432H679.623L681.133 122.079H751.168C758.188 122.079 763.519 127.496 763.528 134.379C763.528 134.732 763.515 135.089 763.487 135.449L745.571 365.28L741.09 422.782L739.579 442.163L737.86 464.21L737.615 467.355L735.68 492.169L732.897 527.866L732.861 528.333L732.077 538.397L727.341 599.142C726.837 605.614 721.821 611.01 715.621 612.247C714.747 612.421 713.851 612.512 712.939 612.512ZM450.233 373.42H431.506L450.055 135.449C450.631 128.065 457.079 122.079 464.458 122.079H534.495L532.985 141.432H468.317L450.233 373.42Z" fill="#4E565D"/>
<path d="M674.1 152.398H536.802C534.222 152.398 532.294 150.306 532.496 147.725L534.608 120.62C534.808 118.038 537.063 115.946 539.643 115.946H676.941C679.519 115.946 681.448 118.038 681.246 120.62L679.134 147.725C678.932 150.306 676.677 152.398 674.1 152.398Z" fill="#9F7E69"/>
<path d="M679.623 141.432H661.41L661.545 139.714C661.567 139.419 661.578 139.123 661.578 138.834C661.569 133.172 657.17 128.702 651.398 128.702H563.196C557.127 128.702 551.805 133.641 551.333 139.714L551.198 141.432H532.985L534.609 120.62C534.808 118.038 537.063 115.946 539.643 115.946H597.551L596.895 124.358H618.377L619.033 115.946H676.941C679.399 115.946 681.265 117.846 681.26 120.259C681.26 120.379 681.256 120.498 681.246 120.62L679.623 141.432ZM657.674 141.432H554.934L555.069 139.714C555.381 135.703 558.896 132.44 562.905 132.44H651.106C654.919 132.44 657.826 135.391 657.831 139.133C657.831 139.325 657.824 139.518 657.809 139.714L657.674 141.432Z" fill="#9F7E69"/>
<path d="M618.377 124.357H596.895L597.732 113.61C598.195 107.673 603.379 102.86 609.312 102.86C615.243 102.86 619.677 107.673 619.214 113.61L618.377 124.357Z" fill="#9F7E69"/>
<path d="M618.377 124.357H596.895L597.732 113.61C598.195 107.673 603.379 102.86 609.312 102.86C614.953 102.86 619.24 107.214 619.248 112.748C619.248 113.032 619.236 113.32 619.214 113.61L618.377 124.357Z" fill="#D2BBA0"/>
<path d="M709.08 593.159H433.105L468.317 141.432H744.293L709.08 593.159Z" fill="white"/>
<path d="M562.905 132.44C558.896 132.44 555.381 135.703 555.069 139.714L553.95 154.065C553.638 158.075 556.643 161.338 560.652 161.338H648.854C652.862 161.338 656.378 158.075 656.69 154.065L657.809 139.714C658.121 135.703 655.115 132.44 651.106 132.44H562.905ZM648.564 165.076H560.361C554.292 165.076 549.741 160.137 550.214 154.065L551.333 139.714C551.805 133.641 557.127 128.702 563.196 128.702H651.398C657.467 128.702 662.017 133.641 661.545 139.714L660.426 154.065C659.953 160.137 654.631 165.076 648.564 165.076Z" fill="#9F7E69"/>
<path d="M648.564 165.076H560.361C554.589 165.076 550.19 160.608 550.18 154.945C550.18 154.655 550.191 154.362 550.214 154.065L551.333 139.714C551.805 133.641 557.127 128.702 563.196 128.702H651.398C657.17 128.702 661.569 133.172 661.578 138.834C661.578 139.124 661.567 139.419 661.545 139.714L660.426 154.065C659.953 160.137 654.631 165.076 648.564 165.076ZM553.927 154.648C553.933 158.387 556.84 161.338 560.652 161.338H648.854C652.862 161.338 656.378 158.075 656.69 154.065L657.809 139.714C657.824 139.518 657.831 139.325 657.831 139.133C657.826 135.391 654.919 132.44 651.106 132.44H562.905C558.896 132.44 555.381 135.703 555.069 139.714L553.95 154.065C553.935 154.261 553.927 154.455 553.927 154.648Z" fill="#D2BBA0"/>
<path d="M644.012 136.975H569.292C567.874 136.975 566.813 135.825 566.923 134.407L567.508 126.928C567.618 125.508 568.856 124.358 570.276 124.358H644.996C646.414 124.358 647.475 125.508 647.365 126.928L646.78 134.407C646.67 135.825 645.431 136.975 644.012 136.975Z" fill="#5A4B41"/>
<path d="M707.281 207.435H498.065L499.845 184.598H709.061L707.281 207.435Z" fill="#9F7E69"/>
<path d="M622.612 239.206H483.334L483.793 233.313H623.071L622.612 239.206Z" fill="#9F7E69"/>
<path d="M621.287 256.198H482.009L482.469 250.303H621.747L621.287 256.198Z" fill="#9F7E69"/>
<path d="M619.963 273.188H480.685L481.144 267.293H620.423L619.963 273.188Z" fill="#9F7E69"/>
<path d="M618.639 290.179H479.361L479.82 284.284H619.098L618.639 290.179Z" fill="#9F7E69"/>
<path d="M710.032 290.179H653.206L657.639 233.312H714.465L710.032 290.179Z" fill="#9F7E69"/>
<path d="M678.791 257.714C678.87 256.7 679.077 255.798 679.411 255.007C679.746 254.216 680.133 253.537 680.574 252.968C681.017 252.375 681.618 251.659 682.378 250.818C683.464 249.607 684.219 248.668 684.643 248.001C685.093 247.309 685.355 246.493 685.428 245.554C685.525 244.318 685.189 243.379 684.421 242.737C683.68 242.069 682.751 241.736 681.636 241.736C680.025 241.736 678.389 242.205 676.729 243.145L676.629 240.142C678.422 239.079 680.459 238.548 682.74 238.548C684.227 238.548 685.48 238.844 686.5 239.437C687.545 240.031 688.3 240.834 688.766 241.847C689.235 242.836 689.423 243.923 689.33 245.109C689.261 245.999 689.049 246.815 688.693 247.556C688.365 248.273 688.008 248.878 687.622 249.373C687.238 249.842 686.585 250.596 685.661 251.634C684.548 252.87 683.725 253.895 683.19 254.711C682.682 255.502 682.387 256.428 682.304 257.491L682.215 258.64H678.719L678.791 257.714ZM678.268 261.087H682.284L681.978 265.017H677.962L678.268 261.087Z" fill="white"/>
<path d="M615.904 325.253H476.628L477.087 319.358H616.365L615.904 325.253Z" fill="#9F7E69"/>
<path d="M614.579 342.243H475.303L475.763 336.348H615.039L614.579 342.243Z" fill="#9F7E69"/>
<path d="M613.255 359.234H473.979L474.438 353.339H613.714L613.255 359.234Z" fill="#9F7E69"/>
<path d="M611.931 376.224H472.654L473.114 370.331H612.39L611.931 376.224Z" fill="#9F7E69"/>
<path d="M703.324 376.224H646.5L650.931 319.358H707.757L703.324 376.224Z" fill="#9F7E69"/>
<path d="M672.083 343.757C672.162 342.743 672.369 341.841 672.703 341.05C673.038 340.259 673.425 339.58 673.866 339.011C674.309 338.418 674.91 337.702 675.67 336.861C676.756 335.65 677.511 334.711 677.935 334.044C678.385 333.352 678.647 332.536 678.72 331.597C678.817 330.361 678.481 329.422 677.713 328.78C676.972 328.112 676.043 327.779 674.928 327.779C673.317 327.779 671.681 328.248 670.021 329.187L669.921 326.185C671.714 325.122 673.751 324.591 676.032 324.591C677.519 324.591 678.772 324.887 679.792 325.48C680.837 326.073 681.592 326.877 682.058 327.89C682.527 328.879 682.715 329.966 682.622 331.152C682.553 332.042 682.341 332.858 681.985 333.599C681.657 334.316 681.3 334.921 680.914 335.415C680.53 335.885 679.877 336.639 678.953 337.677C677.84 338.913 677.017 339.938 676.482 340.754C675.974 341.545 675.679 342.471 675.596 343.534L675.507 344.683H672.011L672.083 343.757ZM671.56 347.13H675.576L675.27 351.06H671.254L671.56 347.13Z" fill="white"/>
<path d="M609.198 411.298H469.92L470.379 405.403H609.657L609.198 411.298Z" fill="#9F7E69"/>
<path d="M607.873 428.288H468.595L469.055 422.393H608.333L607.873 428.288Z" fill="#9F7E69"/>
<path d="M606.549 445.279H467.271L467.73 439.385H607.008L606.549 445.279Z" fill="#9F7E69"/>
<path d="M605.225 462.271H465.946L466.406 456.376H605.684L605.225 462.271Z" fill="#9F7E69"/>
<path d="M696.616 462.271H639.792L644.225 405.403H701.049L696.616 462.271Z" fill="#9F7E69"/>
<path d="M665.377 429.803C665.456 428.79 665.663 427.888 665.997 427.097C666.332 426.306 666.719 425.627 667.16 425.058C667.603 424.465 668.204 423.748 668.964 422.908C670.05 421.697 670.805 420.758 671.229 420.091C671.679 419.399 671.941 418.583 672.014 417.644C672.111 416.408 671.775 415.469 671.007 414.827C670.266 414.159 669.337 413.826 668.222 413.826C666.61 413.826 664.975 414.295 663.315 415.234L663.215 412.232C665.008 411.169 667.045 410.638 669.326 410.638C670.813 410.638 672.066 410.934 673.086 411.527C674.131 412.12 674.886 412.924 675.352 413.937C675.821 414.925 676.009 416.013 675.916 417.199C675.847 418.089 675.634 418.904 675.279 419.646C674.951 420.363 674.594 420.968 674.208 421.462C673.824 421.932 673.171 422.686 672.247 423.724C671.134 424.959 670.311 425.985 669.776 426.801C669.268 427.591 668.973 428.518 668.89 429.581L668.8 430.73H665.305L665.377 429.803ZM664.854 433.177H668.87L668.564 437.106H664.548L664.854 433.177Z" fill="white"/>
<path d="M602.49 497.343H463.212L463.671 491.448H602.949L602.49 497.343Z" fill="#9F7E69"/>
<path d="M601.165 514.333H461.887L462.347 508.44H601.625L601.165 514.333Z" fill="#9F7E69"/>
<path d="M599.841 531.325H460.563L461.022 525.43H600.3L599.841 531.325Z" fill="#9F7E69"/>
<path d="M598.517 548.316H459.238L459.698 542.421H598.976L598.517 548.316Z" fill="#9F7E69"/>
<path d="M689.91 548.316H633.084L637.517 491.448H694.343L689.91 548.316Z" fill="#9F7E69"/>
<path d="M658.669 515.848C658.748 514.835 658.955 513.933 659.289 513.142C659.624 512.351 660.011 511.672 660.452 511.103C660.895 510.51 661.496 509.793 662.256 508.953C663.342 507.742 664.097 506.803 664.521 506.136C664.971 505.444 665.233 504.628 665.306 503.689C665.403 502.453 665.067 501.514 664.299 500.872C663.558 500.204 662.629 499.871 661.514 499.871C659.902 499.871 658.267 500.34 656.607 501.279L656.507 498.277C658.3 497.214 660.337 496.682 662.617 496.682C664.105 496.682 665.358 496.979 666.378 497.572C667.423 498.165 668.178 498.969 668.644 499.982C669.113 500.97 669.301 502.058 669.208 503.244C669.139 504.134 668.926 504.949 668.571 505.691C668.243 506.407 667.886 507.013 667.5 507.507C667.116 507.977 666.463 508.731 665.539 509.769C664.426 511.004 663.603 512.03 663.068 512.846C662.56 513.636 662.265 514.563 662.182 515.626L662.092 516.775H658.597L658.669 515.848ZM658.146 519.222H662.162L661.856 523.151H657.84L658.146 519.222Z" fill="white"/>
<path d="M707.281 207.435H498.065L499.845 184.598H709.061L707.281 207.435Z" fill="#9F7E69"/>
<path d="M622.612 239.206H483.334L483.793 233.313H623.071L622.612 239.206Z" fill="#9F7E69"/>
<path d="M621.287 256.198H482.009L482.469 250.303H621.747L621.287 256.198Z" fill="#9F7E69"/>
<path d="M619.963 273.188H480.685L481.144 267.293H620.423L619.963 273.188Z" fill="#9F7E69"/>
<path d="M618.639 290.179H479.361L479.82 284.284H619.098L618.639 290.179Z" fill="#9F7E69"/>
<path d="M710.032 290.179H653.206L657.639 233.312H714.465L710.032 290.179ZM675.803 242.133L672.76 281.159H691.842L694.885 242.133H675.803Z" fill="#9F7E69"/>
<path d="M672.76 281.159H694.885V242.133H672.76V281.159Z" fill="#9F7E69"/>
<path d="M678.791 257.714C678.87 256.7 679.077 255.798 679.411 255.007C679.746 254.216 680.133 253.537 680.574 252.968C681.017 252.375 681.618 251.659 682.378 250.818C683.464 249.607 684.219 248.668 684.643 248.001C685.093 247.309 685.355 246.493 685.428 245.554C685.525 244.318 685.189 243.379 684.421 242.737C683.68 242.069 682.751 241.736 681.636 241.736C680.025 241.736 678.389 242.205 676.729 243.145L676.629 240.142C678.422 239.079 680.459 238.548 682.74 238.548C684.227 238.548 685.48 238.844 686.5 239.437C687.545 240.031 688.3 240.834 688.766 241.847C689.235 242.836 689.423 243.923 689.33 245.109C689.261 245.999 689.049 246.815 688.693 247.556C688.365 248.273 688.008 248.878 687.622 249.373C687.238 249.842 686.585 250.596 685.661 251.634C684.548 252.87 683.725 253.895 683.19 254.711C682.682 255.502 682.387 256.428 682.304 257.491L682.215 258.64H678.719L678.791 257.714ZM678.268 261.087H682.284L681.978 265.017H677.962L678.268 261.087Z" fill="white"/>
<path d="M615.904 325.253H476.628L477.087 319.358H616.365L615.904 325.253Z" fill="#9F7E69"/>
<path d="M614.579 342.243H475.303L475.763 336.348H615.039L614.579 342.243Z" fill="#9F7E69"/>
<path d="M613.255 359.234H473.979L474.438 353.339H613.714L613.255 359.234Z" fill="#9F7E69"/>
<path d="M611.931 376.224H476.979V375.598C476.979 374.395 476.004 373.42 474.799 373.42H472.873L473.114 370.331H612.39L611.931 376.224Z" fill="#9F7E69"/>
<path d="M703.324 376.224H646.5L650.931 319.358H707.757L703.324 376.224ZM669.095 328.178L666.054 367.204H685.136L688.177 328.178H669.095Z" fill="#9F7E69"/>
<path d="M666.054 367.204H688.177V328.177H666.054V367.204Z" fill="#9F7E69"/>
<path d="M672.083 343.757C672.162 342.743 672.369 341.841 672.703 341.05C673.038 340.259 673.425 339.58 673.866 339.011C674.309 338.418 674.91 337.702 675.67 336.861C676.756 335.65 677.511 334.711 677.935 334.044C678.385 333.352 678.647 332.536 678.72 331.597C678.817 330.361 678.481 329.422 677.713 328.78C676.972 328.112 676.043 327.779 674.928 327.779C673.317 327.779 671.681 328.248 670.021 329.187L669.921 326.185C671.714 325.122 673.751 324.591 676.032 324.591C677.519 324.591 678.772 324.887 679.792 325.48C680.837 326.073 681.592 326.877 682.058 327.89C682.527 328.879 682.715 329.966 682.622 331.152C682.553 332.042 682.341 332.858 681.985 333.599C681.657 334.316 681.3 334.921 680.914 335.415C680.53 335.885 679.877 336.639 678.953 337.677C677.84 338.913 677.017 339.938 676.482 340.754C675.974 341.545 675.679 342.471 675.596 343.534L675.507 344.683H672.011L672.083 343.757ZM671.56 347.13H675.576L675.27 351.06H671.254L671.56 347.13Z" fill="white"/>
<path d="M609.198 411.298H469.92L470.379 405.403H609.657L609.198 411.298Z" fill="#9F7E69"/>
<path d="M607.873 428.288H468.595L469.055 422.393H608.333L607.873 428.288Z" fill="#9F7E69"/>
<path d="M606.549 445.279H467.271L467.73 439.385H607.008L606.549 445.279Z" fill="#9F7E69"/>
<path d="M605.225 462.271H465.946L466.406 456.376H605.684L605.225 462.271Z" fill="#9F7E69"/>
<path d="M696.616 462.271H639.792L644.225 405.403H701.049L696.616 462.271ZM662.387 414.225L659.346 453.251H678.428L681.471 414.225H662.387Z" fill="#9F7E69"/>
<path d="M659.346 453.251H681.47V414.225H659.346V453.251Z" fill="#9F7E69"/>
<path d="M665.377 429.803C665.456 428.79 665.663 427.888 665.997 427.097C666.332 426.306 666.719 425.627 667.16 425.058C667.603 424.465 668.204 423.748 668.964 422.908C670.05 421.697 670.805 420.758 671.229 420.091C671.679 419.399 671.941 418.583 672.014 417.644C672.111 416.408 671.775 415.469 671.007 414.827C670.266 414.159 669.337 413.826 668.222 413.826C666.61 413.826 664.975 414.295 663.315 415.234L663.215 412.232C665.008 411.169 667.045 410.638 669.326 410.638C670.813 410.638 672.066 410.934 673.086 411.527C674.131 412.12 674.886 412.924 675.352 413.937C675.821 414.925 676.009 416.013 675.916 417.199C675.847 418.089 675.634 418.904 675.279 419.646C674.951 420.363 674.594 420.968 674.208 421.462C673.824 421.932 673.171 422.686 672.247 423.724C671.134 424.959 670.311 425.985 669.776 426.801C669.268 427.591 668.973 428.518 668.89 429.581L668.8 430.73H665.305L665.377 429.803ZM664.854 433.177H668.87L668.564 437.106H664.548L664.854 433.177Z" fill="white"/>
<path d="M602.49 497.343H463.212L463.671 491.448H602.949L602.49 497.343Z" fill="#9F7E69"/>
<path d="M601.165 514.333H461.887L462.347 508.44H601.625L601.165 514.333Z" fill="#9F7E69"/>
<path d="M599.841 531.325H460.563L461.022 525.43H600.3L599.841 531.325Z" fill="#9F7E69"/>
<path d="M598.517 548.316H459.238L459.698 542.421H598.976L598.517 548.316Z" fill="#9F7E69"/>
<path d="M689.91 548.316H633.084L637.517 491.448H694.343L689.91 548.316ZM655.681 500.272L652.638 539.294H671.722L674.763 500.272H655.681Z" fill="#9F7E69"/>
<path d="M652.638 539.294H674.762V500.272H652.638V539.294Z" fill="#9F7E69"/>
<path d="M658.669 515.848C658.748 514.835 658.955 513.933 659.289 513.142C659.624 512.351 660.011 511.672 660.452 511.103C660.895 510.51 661.496 509.793 662.256 508.953C663.342 507.742 664.097 506.803 664.521 506.136C664.971 505.444 665.233 504.628 665.306 503.689C665.403 502.453 665.067 501.514 664.299 500.872C663.558 500.204 662.629 499.871 661.514 499.871C659.902 499.871 658.267 500.34 656.607 501.279L656.507 498.277C658.3 497.214 660.337 496.682 662.617 496.682C664.105 496.682 665.358 496.979 666.378 497.572C667.423 498.165 668.178 498.969 668.644 499.982C669.113 500.97 669.301 502.058 669.208 503.244C669.139 504.134 668.926 504.949 668.571 505.691C668.243 506.407 667.886 507.013 667.5 507.507C667.116 507.977 666.463 508.731 665.539 509.769C664.426 511.004 663.603 512.03 663.068 512.846C662.56 513.636 662.265 514.563 662.182 515.626L662.092 516.775H658.597L658.669 515.848ZM658.146 519.222H662.162L661.856 523.151H657.84L658.146 519.222Z" fill="white"/>
<path d="M373.6 377.406V428.85C373.6 438.991 369.688 448.742 362.68 456.073L314.655 506.292H341.844L391.725 457.209C399.251 449.804 403.488 439.692 403.488 429.134V377.406H373.6Z" fill="#9F7E69"/>
<path d="M362.921 455.817C362.917 455.816 362.915 455.816 362.909 455.814C365.071 453.524 366.928 451 368.459 448.305C366.929 451 365.074 453.524 362.921 455.817ZM395.317 453.152C396.528 451.579 397.613 449.922 398.568 448.198C397.615 449.924 396.53 451.581 395.317 453.152ZM373.591 429.702C373.591 429.695 373.591 429.687 373.591 429.68C373.591 429.687 373.591 429.695 373.591 429.702ZM373.591 429.676C373.596 429.402 373.6 429.125 373.6 428.849V428.851C373.6 429.125 373.596 429.402 373.591 429.676Z" fill="white"/>
<path d="M385.21 463.61C378.167 460.801 370.619 458.203 362.921 455.817C365.074 453.524 366.929 451 368.459 448.305C371.667 442.667 373.449 436.279 373.591 429.702C373.591 429.695 373.591 429.687 373.591 429.68C373.591 429.678 373.591 429.678 373.591 429.676C373.596 429.402 373.6 429.125 373.6 428.851C373.6 428.849 373.6 428.849 373.6 428.849V383.257V426.065L402.517 437.74C401.706 441.403 400.374 444.924 398.568 448.198C397.613 449.922 396.528 451.579 395.317 453.152C394.221 454.577 393.02 455.931 391.72 457.203L385.21 463.61Z" fill="#D2BBA0"/>
<path d="M403.213 433.778C403.378 432.386 403.469 430.983 403.486 429.569C403.469 430.985 403.38 432.39 403.213 433.778ZM403.486 429.564C403.486 429.549 403.486 429.536 403.486 429.519C403.486 429.534 403.486 429.549 403.486 429.564ZM403.486 429.487C403.486 429.478 403.486 429.47 403.486 429.463C403.486 429.47 403.486 429.478 403.486 429.487ZM403.486 429.413C403.486 429.409 403.486 429.403 403.486 429.399C403.486 429.403 403.486 429.409 403.486 429.413Z" fill="#CECDCB"/>
<path d="M402.517 437.74L373.6 426.065V383.257H403.488V429.129C403.488 429.22 403.488 429.31 403.486 429.4C403.486 429.403 403.486 429.409 403.486 429.413C403.486 429.429 403.486 429.446 403.486 429.463C403.486 429.471 403.486 429.478 403.486 429.487C403.486 429.499 403.486 429.51 403.486 429.519C403.486 429.536 403.486 429.549 403.486 429.564C403.486 429.566 403.486 429.568 403.486 429.57C403.469 430.984 403.378 432.386 403.213 433.778C403.053 435.113 402.821 436.434 402.517 437.74Z" fill="#B9A691"/>
<path d="M295.775 511.895L255.552 665.183C254.801 668.047 252.21 670.046 249.251 670.046H177.354C176.145 670.046 175.029 669.496 174.29 668.54C173.552 667.584 173.304 666.362 173.611 665.193L213.862 511.895H206.138L166.383 663.297C165.484 666.724 166.21 670.3 168.375 673.104C170.538 675.909 173.811 677.517 177.354 677.517H249.251C255.604 677.517 261.167 673.225 262.779 667.081L303.5 511.895H295.775Z" fill="#9F7E69"/>
<path d="M249.251 677.517H177.354C173.811 677.517 170.538 675.909 168.375 673.104C166.819 671.088 166.006 668.675 166.006 666.203C166.006 665.236 166.131 664.26 166.383 663.297L200.644 532.818L207.796 535.001L187.672 611.64L187.551 612.107L173.611 665.193C173.525 665.521 173.482 665.856 173.482 666.184C173.482 667.029 173.76 667.852 174.29 668.54C175.029 669.496 176.145 670.046 177.354 670.046H249.251C252.21 670.046 254.801 668.047 255.552 665.183L278.422 578.031L282.283 592.755L277.327 611.64L277.204 612.107L271.095 635.384L270.974 635.851L262.779 667.081C261.167 673.225 255.604 677.517 249.251 677.517Z" fill="#D2BBA0"/>
<path d="M286.146 578.032L282.285 563.308L294.294 517.542H294.298L283.656 558.089L290.806 560.269L286.146 578.032ZM300.699 522.569L302.016 517.542H302.018L300.699 522.569Z" fill="#D2BBA0"/>
<path d="M312.236 677.517L268.247 509.781L261.019 511.674L304.512 677.517H312.236Z" fill="#9F7E69"/>
<path d="M401.9 677.517L357.911 509.781L350.683 511.674L394.176 677.517H401.9Z" fill="#9F7E69"/>
<path d="M312.236 677.517H304.512L282.283 592.755L278.422 578.031L269.857 545.37L278.239 547.909L270.279 517.542H270.283L312.236 677.517Z" fill="#E7D1B8"/>
<path d="M401.9 677.517H394.176L379.697 622.311C381.072 619.082 382.684 615.274 384.464 611.035L401.9 677.517ZM366.756 543.895L359.861 517.542H359.947L366.808 543.706C366.791 543.766 366.772 543.833 366.756 543.895Z" fill="#D2BBA0"/>
<path d="M207.796 535.001L209.547 528.333H209.549L207.796 535.001ZM209.672 527.866H209.67L212.38 517.542H212.384L209.672 527.866Z" fill="#CECDCB"/>
<path d="M209.549 528.333H209.547L209.67 527.866H209.672L209.549 528.333Z" fill="#BDBCBA"/>
<path d="M200.644 532.818L200.642 532.816L201.819 528.333H201.821L200.644 532.818ZM201.944 527.866H201.942L204.652 517.542H204.654L201.944 527.866Z" fill="#CECDCB"/>
<path d="M201.821 528.333H201.819L201.942 527.866H201.944L201.821 528.333Z" fill="#BDBCBA"/>
<path d="M207.796 535.001L200.644 532.818L204.654 517.542H212.38L209.67 527.866L209.547 528.333L207.796 535.001Z" fill="#B9A691"/>
<path d="M269.857 545.37L269.851 545.368L265.385 528.333H265.389L269.857 545.37ZM265.265 527.866H265.262L262.555 517.542H262.559L265.265 527.866Z" fill="#CECDCB"/>
<path d="M265.389 528.333H265.385L265.262 527.866H265.265L265.389 528.333Z" fill="#BDBCBA"/>
<path d="M278.239 547.909L269.857 545.37L262.559 517.542H270.279L278.239 547.909Z" fill="#B9A691"/>
<path d="M290.829 560.274L290.807 560.269L299.186 528.333H299.19L290.829 560.274ZM299.313 527.866H299.31L300.699 522.569L299.313 527.866Z" fill="#CECDCB"/>
<path d="M299.19 528.333H299.186L299.31 527.866H299.313L299.19 528.333Z" fill="#BDBCBA"/>
<path d="M290.806 560.269L283.656 558.089L294.298 517.542H302.016L300.699 522.569L299.31 527.866L299.186 528.333L290.806 560.269Z" fill="#B9A691"/>
<path d="M362.853 558.619L356.612 534.79C356.629 534.687 356.646 534.579 356.663 534.475L362.922 558.345C362.9 558.436 362.876 558.528 362.853 558.619Z" fill="#CECDCB"/>
<path d="M362.922 558.345L356.663 534.475C357.591 528.645 358.452 522.961 359.213 517.542H359.861L366.756 543.895C365.435 548.62 364.154 553.468 362.922 558.345Z" fill="#B9A691"/>
<path d="M199.321 514.462L164.307 325.376L163.836 322.518C163.165 318.852 164.08 315.142 166.361 312.407C168.571 309.755 171.763 308.294 175.349 308.294H250.966C257.933 308.294 264.684 314.096 266.014 321.227L266.575 324.416L301.49 513.065L294.141 514.427L259.118 325.199L258.66 322.548C257.989 318.958 254.392 315.766 250.966 315.766H175.349C174 315.766 172.877 316.259 172.1 317.191C171.243 318.218 170.915 319.694 171.197 321.239L171.728 324.369L206.67 513.102L199.321 514.462Z" fill="#9F7E69"/>
<path d="M199.321 514.462L164.307 325.376L163.836 322.518C163.692 321.73 163.621 320.94 163.621 320.159C163.621 317.303 164.57 314.555 166.361 312.407C168.571 309.755 171.763 308.294 175.349 308.294H214.456C214.854 310.674 215.45 313.177 216.214 315.766H175.349C174 315.766 172.877 316.259 172.1 317.191C171.444 317.977 171.098 319.027 171.098 320.168C171.099 320.518 171.131 320.876 171.197 321.239L171.728 324.369L171.864 325.105H167.97L182.13 401.689H186.043L205.25 505.438V506.624H203.018C200.943 506.624 199.261 508.307 199.261 510.383V513.786C199.261 514.016 199.282 514.243 199.323 514.462H199.321Z" fill="#B9A691"/>
<path d="M358.303 495.708H214.59C209.433 495.708 205.25 499.889 205.25 505.048V517.542H367.643V505.048C367.643 499.889 363.46 495.708 358.303 495.708Z" fill="#9F7E69"/>
<path d="M369.875 506.624H203.018C200.943 506.624 199.261 508.307 199.261 510.383V513.786C199.261 515.86 200.943 517.542 203.018 517.542H369.875C371.949 517.542 373.632 515.86 373.632 513.786V510.383C373.632 508.307 371.949 506.624 369.875 506.624Z" fill="#9F7E69"/>
<path d="M369.875 517.542H359.213C359.743 513.758 360.225 510.11 360.649 506.624H369.875C371.949 506.624 373.632 508.307 373.632 510.383V513.786C373.632 515.86 371.949 517.542 369.875 517.542ZM316.082 517.542H302.016H294.298H270.279H262.559H212.38H204.654H203.018C201.174 517.542 199.641 516.214 199.323 514.462C199.282 514.243 199.261 514.016 199.261 513.786V510.383C199.261 508.307 200.943 506.624 203.018 506.624H318.072C317.353 510.093 316.691 513.75 316.082 517.542Z" fill="#D2BBA0"/>
<path d="M277.08 401.689H182.13L167.97 325.105H262.902L276.95 400.979L277.08 401.689Z" fill="#5C4D43"/>
<path d="M370.484 238.49C370.484 238.49 358.551 210.763 357.509 207.799C356.467 204.834 357.696 189.826 356.792 187.157C355.888 184.486 342.005 182.728 339.072 183.07C336.137 183.41 338.732 206.598 339.937 208.44C341.142 210.281 345.268 213.522 345.268 213.522L355.819 245.347L370.484 238.49Z" fill="#CD6857"/>
<path d="M310.032 290.818C318.182 292.107 351.52 296.913 358.968 291.95C364.989 287.937 348.038 222.914 348.038 222.914L363.121 216.776C363.121 216.776 398.932 295.624 379.8 313.636C370.081 322.789 342.778 325.105 303.494 325.105L310.032 290.818Z" fill="#9F7E69"/>
<path d="M314.302 325.04V325.036C315.933 325.017 317.539 324.991 319.12 324.961C317.539 324.993 315.931 325.019 314.302 325.04ZM323.893 324.844C321.35 315.263 315.35 308.09 312.533 305.124C311.298 295.508 310.032 290.818 310.032 290.818C315.522 291.686 332.437 294.15 345.173 294.15C351.347 294.15 356.536 293.571 358.968 291.95C359.876 291.345 360.261 289.352 360.261 286.4C360.261 272.768 352.021 238.72 349.071 226.975L364.85 220.73C370.086 232.974 385.419 270.917 385.424 295.428C385.426 303.331 383.835 309.837 379.8 313.636C371.865 321.108 352.215 324.024 323.893 324.844Z" fill="#DBE8F7"/>
<path d="M319.12 324.961C320.737 324.928 322.327 324.888 323.892 324.844C322.329 324.89 320.737 324.928 319.12 324.961Z" fill="#E8E8E7"/>
<path d="M314.302 325.036C313.858 316.939 313.2 310.315 312.533 305.124C315.35 308.09 321.35 315.263 323.892 324.844C322.327 324.889 320.737 324.928 319.12 324.961C317.539 324.991 315.933 325.017 314.302 325.036Z" fill="#C4D1EA"/>
<path d="M355.742 337.577L395.282 379.375L397.996 376.809L358.456 335.009L355.742 337.577Z" fill="#252D32"/>
<path d="M328.768 360.907C328.768 360.907 358.94 359.973 362.067 359.661C365.194 359.351 378.27 351.88 381.072 351.568C383.874 351.256 391.346 363.087 392.28 365.889C393.214 368.691 371.11 376.162 368.93 375.851C366.75 375.539 362.067 373.174 362.067 373.174L328.768 377.096V360.907Z" fill="#CD6857"/>
<path d="M311.029 662.876L325.91 660.833L327.972 625.462L313.112 627.521L311.029 662.876Z" fill="#CD6857"/>
<path d="M327.031 659.042L310.221 657.992C309.636 657.93 309.111 658.352 309.047 658.937L309.046 658.953L307.396 672.215C307.305 673.665 308.397 674.919 309.847 675.027C315.718 675.298 318.535 675.133 325.938 675.537C330.479 675.807 339.427 676.774 345.694 676.166C351.961 675.559 351.193 669.382 348.487 669.087C342.07 668.357 333.571 663.642 329.554 660.063C328.85 659.452 327.963 659.092 327.031 659.042Z" fill="#252D32"/>
<path d="M334.553 659.096C333.597 658.653 331.028 659.752 329.22 660.749C331.865 661.444 333.838 661.481 334.589 660.837C334.906 660.514 335.03 660.049 334.916 659.61C334.893 659.387 334.757 659.191 334.553 659.096ZM332.188 661.922C330.84 661.806 329.51 661.541 328.221 661.134L327.972 660.856L328.131 660.504C328.63 660.2 333.055 657.574 334.85 658.397C335.261 658.593 335.543 658.988 335.596 659.44C335.799 660.133 335.584 660.88 335.046 661.361C334.196 661.9 333.176 662.099 332.188 661.922Z" fill="#9F7E69"/>
<path d="M330.728 655.315C330.445 655.294 330.169 655.393 329.963 655.586C329.001 656.4 328.74 658.859 328.691 660.269C330.049 659.255 331.619 656.983 331.525 655.884C331.508 655.681 331.393 655.427 330.897 655.339L330.728 655.315ZM328.297 661.144L328.148 661.158L327.974 660.874C327.982 660.741 327.911 656.361 329.5 654.988C329.924 654.64 330.483 654.497 331.023 654.598C331.635 654.656 332.132 655.123 332.226 655.731C332.459 657.381 330.033 660.381 328.486 661.167L328.297 661.144Z" fill="#9F7E69"/>
<path d="M311.949 647.003L312.408 639.322L312.417 639.324L311.965 647.001L311.949 647.003ZM327.008 641.98L327.098 640.444L327.008 641.98Z" fill="#CECDCB"/>
<path d="M311.965 647.001L312.417 639.323L327.098 640.444L327.008 641.98L326.792 645.699L311.965 647.001Z" fill="#A25245"/>
<path d="M311.627 454.943L307.996 432.199L224.571 427.21C224.571 427.21 215.7 474.537 222.516 487.146C231.202 503.215 267.109 502.024 293.926 500.832C304.671 500.354 313.957 499.876 319.447 500.509C307.977 547.412 309.098 639.07 309.098 639.07L336.502 641.162C336.502 641.162 357.587 542.395 361.85 495.465C364.727 463.797 338.487 464.585 311.627 454.943Z" fill="#252D32"/>
<path d="M305.885 640.359L338.818 642.525L341.638 628.423L305.455 626.742L305.885 640.359Z" fill="#9F7E69"/>
<path d="M345.358 649.666L360.337 650.769L369.722 616.603L354.759 615.521L345.358 649.666Z" fill="#CD6857"/>
<path d="M361.807 649.25L345.584 644.722C345.025 644.539 344.424 644.844 344.239 645.402L344.235 645.419L339.858 658.046C339.468 659.445 340.275 660.898 341.67 661.306C347.356 662.792 350.145 663.221 357.302 665.156C361.686 666.366 370.238 669.175 376.494 669.887C382.748 670.599 383.284 664.397 380.7 663.543C374.575 661.493 367.245 655.112 364.062 650.776C363.502 650.031 362.708 649.493 361.807 649.25Z" fill="#252D32"/>
<path d="M369.152 650.87C368.31 650.236 365.569 650.776 363.591 651.376C366.035 652.605 367.955 653.055 368.825 652.581C369.203 652.33 369.421 651.901 369.401 651.447C369.425 651.224 369.332 651.006 369.152 650.87ZM366.251 653.141C364.957 652.747 363.711 652.211 362.536 651.544L362.351 651.219L362.577 650.909C363.13 650.714 368.005 649.069 369.589 650.247C369.95 650.526 370.142 650.968 370.101 651.423C370.155 652.144 369.789 652.829 369.163 653.188C368.22 653.537 367.182 653.52 366.251 653.141Z" fill="#9F7E69"/>
<path d="M366.199 646.375C365.928 646.297 365.635 646.334 365.394 646.481C364.284 647.075 363.516 649.427 363.175 650.797C364.714 650.085 366.722 648.193 366.86 647.098C366.886 646.894 366.827 646.624 366.36 646.433L366.199 646.375ZM362.607 651.571L362.459 651.553L362.347 651.237C362.383 651.11 363.225 646.81 365.065 645.8C365.554 645.547 366.128 645.523 366.636 645.734C367.224 645.92 367.611 646.48 367.576 647.094C367.462 648.755 364.464 651.183 362.788 651.631L362.607 651.571Z" fill="#9F7E69"/>
<path d="M349.579 634.335L349.564 634.333L351.61 626.925L351.619 626.928L349.579 634.335ZM365.306 632.678L365.745 631.079L365.306 632.678Z" fill="#CECDCB"/>
<path d="M364.352 636.15L349.579 634.335L351.619 626.928L365.745 631.079L365.306 632.678L364.352 636.15Z" fill="#A25245"/>
<path d="M374.796 633.739L348.419 625.987C348.419 625.987 364.167 537.112 380.138 506.292C378.942 505.9 377.355 505.395 375.393 504.816C371.863 503.751 367.174 502.425 361.663 500.894C323.332 490.265 245.642 470.335 245.642 470.335L281.134 437.217C281.134 437.217 422.504 458.772 425.437 496.018C426.838 513.932 374.796 633.739 374.796 633.739Z" fill="#252D32"/>
<path d="M345.016 626.572L376.776 635.551L382.471 622.345L347.433 613.164L345.016 626.572Z" fill="#9F7E69"/>
<path d="M375.393 504.816C373.135 504.136 370.4 503.348 367.281 502.466C365.525 501.971 363.647 501.446 361.663 500.894C362.766 491.853 362.784 481.486 358.432 476.2C349.783 465.665 327.535 459.482 314.87 457.241C304.278 455.373 268.693 451.656 268.693 451.656C268.693 451.656 275.769 450.978 287.211 450.978C305 450.978 333.346 452.618 362.074 460.995C385.406 467.813 380.866 490.62 375.393 504.816Z" fill="#1E2225"/>
<path d="M310.032 290.818C310.032 290.818 322.137 335.647 307.996 432.199C281.638 431.639 237.348 430.612 224.515 430.332C224.197 416.883 234.116 350.983 222.516 287.418C230.868 285.969 239.315 285.132 247.79 284.915C260.192 284.467 272.61 284.736 284.982 285.718C293.452 286.763 301.828 288.466 310.032 290.818Z" fill="#9F7E69"/>
<path d="M307.996 432.199C281.638 431.639 237.348 430.612 224.515 430.332C224.509 430.115 224.507 429.885 224.507 429.64C224.509 420.372 228.165 391.739 228.163 356.349C228.163 355.373 228.159 354.386 228.154 353.4C232.56 357.661 237.552 361.951 242.44 365.056C249.189 374.145 255.595 380.933 259.652 383.01C262.652 384.547 268.015 385.168 274.714 385.168C282.201 385.168 291.363 384.392 300.77 383.257H313.437C312.378 397.78 310.65 414.079 307.996 432.199ZM295.424 359.138C285.04 359.138 276.785 358.963 274.764 358.453C268.314 356.822 252.994 323.861 244.181 308.294C235.368 292.729 222.516 287.418 222.516 287.418C229.39 286.225 236.328 285.448 243.294 285.089L243.29 285.091C243.29 285.091 243.292 285.122 243.3 285.182C243.643 288.477 245.616 291.217 248.138 293.423C250.753 296.115 254.775 299.19 260.96 302.223L272.81 293.657C272.81 293.657 276.189 315.532 278.311 331.876C278.311 331.876 278.169 305.725 275.917 295.685L284.982 298.902C285.643 296.7 285.862 294.509 285.862 292.566C285.86 288.694 284.982 285.812 284.982 285.812L284.831 285.707C284.881 285.711 284.932 285.715 284.982 285.718C293.452 286.763 301.828 288.466 310.032 290.818C310.032 290.818 314.857 308.686 314.855 346.16C314.855 350.21 314.799 354.483 314.674 358.994C308.074 359.08 301.398 359.138 295.424 359.138Z" fill="#9F7E69"/>
<path d="M228.154 353.4C228.148 353.396 228.144 353.391 228.139 353.385C228.124 349.834 228.068 346.218 227.965 342.551C227.967 342.553 227.969 342.557 227.971 342.559C228.075 346.227 228.133 349.847 228.154 353.4Z" fill="#4168BB"/>
<path d="M242.44 365.056C237.552 361.951 232.56 357.661 228.154 353.4C228.133 349.847 228.075 346.227 227.971 342.559C232.463 350.652 237.542 358.46 242.44 365.056Z" fill="#B0C2E8"/>
<path d="M222.516 287.418C193.96 297.71 244.086 375.042 259.652 383.01C275.218 390.981 354.298 374.295 354.298 374.295L351.184 358.296C351.184 358.296 281.214 360.082 274.764 358.453C268.314 356.822 252.994 323.861 244.181 308.294C235.368 292.729 222.516 287.418 222.516 287.418Z" fill="#9F7E69"/>
<path d="M274.714 385.167C268.015 385.167 262.652 384.547 259.652 383.01C247.43 376.754 213.903 327.737 213.884 301.982C213.879 294.935 216.382 289.63 222.516 287.418C222.516 287.418 235.368 292.729 244.181 308.294C252.994 323.861 268.314 356.822 274.764 358.453C276.785 358.963 285.04 359.138 295.424 359.138C312.612 359.138 335.631 358.658 345.879 358.423L348.737 373.42H288.599C288.107 373.42 287.655 373.581 287.291 373.855C286.482 374.093 285.804 374.571 285.804 375.352V380.825C285.804 381.506 286.305 382.112 286.958 382.511C287.358 382.969 287.945 383.257 288.599 383.257H300.77C291.363 384.392 282.201 385.167 274.714 385.167Z" fill="#DBE8F7"/>
<path d="M345.58 356.859L349.628 378.092L357.1 375.538L354.298 356.859H345.58Z" fill="#9F7E69"/>
<path d="M356.78 373.42H348.737L345.58 356.86H354.298L356.78 373.42Z" fill="#9F7E69"/>
<path d="M347.594 227.559L367.693 219.604L363.786 212.743L345.961 218.997L347.594 227.559Z" fill="#9F7E69"/>
<path d="M347.594 227.559L345.961 218.997L363.786 212.743L367.693 219.604L364.85 220.73L349.071 226.975L347.594 227.559Z" fill="#9F7E69"/>
<path d="M278.311 331.876C276.189 315.532 272.81 293.657 272.81 293.657L260.96 302.223C254.775 299.19 250.753 296.115 248.138 293.424C253.482 298.095 261.292 300.355 261.292 300.355L272.81 291.95L284.982 298.902L275.917 295.686C278.169 305.726 278.311 331.876 278.311 331.876ZM243.299 285.182C243.292 285.123 243.29 285.091 243.29 285.091C243.294 285.121 243.296 285.152 243.299 285.182Z" fill="#B0C2E8"/>
<path d="M252.367 243.224C254.459 255.234 256.327 277.201 247.79 285.009L272.81 291.95L284.982 285.812C271.701 282.337 272.261 272.438 274.783 263.191L252.367 243.224Z" fill="#CD6857"/>
<path d="M273.475 269.767C268.394 268.926 261.52 263.173 261.09 257.831C260.825 255.669 260.965 253.478 261.501 251.368L274.764 263.192C274.148 265.343 273.716 267.542 273.475 269.767Z" fill="#A25245"/>
<path d="M270.057 209.844C264.621 215.747 269.31 222.49 286.663 230.69C290.792 221.593 288.27 206.407 282.666 203.755C277.062 201.102 274.801 204.726 270.057 209.844Z" fill="#252D32"/>
<path d="M245.082 228.411C249.49 244.045 251.283 253.404 261.034 259.811C275.717 269.43 293.706 257.943 294.061 241.3C294.359 226.356 287.112 203.288 270.244 200.355C258.199 198.198 246.686 206.211 244.529 218.253C243.923 221.636 244.112 225.114 245.082 228.411Z" fill="#CD6857"/>
<path d="M269.683 227.627C269.963 228.915 270.879 229.812 271.719 229.625C272.56 229.438 273.008 228.262 272.728 226.973C272.448 225.684 271.551 224.787 270.711 224.956C269.87 225.124 269.496 226.338 269.683 227.627Z" fill="#252D32"/>
<path d="M284.347 224.47C284.627 225.759 285.542 226.655 286.383 226.469C287.224 226.282 287.691 225.105 287.41 223.797C287.13 222.49 286.215 221.612 285.374 221.799C284.534 221.986 284.067 223.181 284.347 224.47Z" fill="#252D32"/>
<path d="M279.696 226.114C282.089 229.722 284.967 232.986 288.251 235.808C286.383 238.442 282.33 238.292 282.33 238.292L279.696 226.114Z" fill="#B93C36"/>
<path d="M264.677 223.872H264.173C263.784 223.695 263.608 223.237 263.78 222.845C264.772 220.549 266.821 218.883 269.272 218.38C269.678 218.306 270.068 218.575 270.143 218.98L270.15 219.034C270.197 219.453 269.911 219.836 269.496 219.912C267.572 220.338 265.973 221.668 265.2 223.48C265.09 223.68 264.899 223.822 264.677 223.872Z" fill="#252D32"/>
<path d="M289.951 218.081C289.658 218.141 289.355 218.033 289.166 217.801C287.993 216.214 286.133 215.283 284.16 215.298C283.732 215.33 283.359 215.014 283.32 214.588C283.286 214.168 283.592 213.796 284.011 213.748C286.51 213.692 288.882 214.846 290.381 216.849C290.644 217.179 290.59 217.661 290.259 217.925L290.25 217.932L289.951 218.081Z" fill="#252D32"/>
<path d="M248.351 213.001C256.308 213.935 257.13 222.116 249.285 239.618C240.225 235.397 232.248 222.21 234.808 216.568C237.367 210.927 241.402 212.198 248.351 213.001Z" fill="#252D32"/>
<path d="M240.281 242.719C242.216 246.321 245.502 249.007 249.415 250.191C254.608 251.704 257.261 247.072 255.879 242.14C254.627 237.695 250.405 231.549 245.175 232.203C239.945 232.857 237.927 238.292 240.281 242.719Z" fill="#CD6857"/>
<path d="M235.517 215.261C235.517 215.261 231.568 210.171 239.306 200.004C247.043 189.839 265.736 186.725 280.129 189.527C294.522 192.329 285.959 208.206 280.822 210.853L281.446 208.361C281.446 208.361 272.603 213.188 263.715 213.188L266.537 210.541C266.537 210.541 243.916 216.402 235.517 215.261Z" fill="#252D32"/>
<path d="M281.371 242.585C280.919 244.666 280.839 248.394 280.839 248.394C280.499 248.448 280.161 248.502 279.819 248.538C275.201 249.15 272.857 247.908 271.658 246.347C271.006 245.489 270.703 244.524 270.565 243.722C270.395 242.796 270.485 242.097 270.485 242.097C273.128 243.235 277.476 242.996 279.793 242.77C280.764 242.686 281.371 242.585 281.371 242.585Z" fill="#252D32"/>
<path d="M279.793 242.77L279.593 244.479C275.242 245.045 272.102 244.86 270.565 243.722C270.395 242.796 270.485 242.097 270.485 242.097C273.128 243.235 277.476 242.996 279.793 242.77Z" fill="white"/>
<path d="M279.819 248.538C275.201 249.15 272.857 247.908 271.658 246.347C273.24 246.199 275.164 246.195 276.92 246.683C278.265 247.049 279.176 247.77 279.819 248.538Z" fill="#B93C36"/>
<path d="M252.161 277.619C252.161 277.619 265.656 287.747 272.81 290.082C272.81 290.082 276.122 283.835 274.764 278.695L284.982 285.812C284.982 285.812 286.962 292.31 284.982 298.902L272.81 291.95L261.292 300.355C261.292 300.355 244.271 295.428 243.29 285.091L252.161 277.619Z" fill="#9F7E69"/>
<path d="M261.292 300.355C261.292 300.355 244.271 295.428 243.29 285.091L252.161 277.619C252.161 277.619 265.656 287.747 272.81 290.082C272.81 290.082 275.093 285.778 275.091 281.375C275.091 280.473 274.994 279.567 274.764 278.695L284.982 285.812C284.982 285.812 285.86 288.694 285.862 292.566C285.862 294.509 285.643 296.7 284.982 298.902L272.81 291.95L261.292 300.355Z" fill="#DBE8F7"/>
<path d="M474.799 383.257H288.599C287.396 383.257 286.42 382.282 286.42 381.077V375.598C286.42 374.395 287.396 373.42 288.599 373.42H474.799C476.004 373.42 476.979 374.395 476.979 375.598V381.077C476.979 382.282 476.004 383.257 474.799 383.257Z" fill="#9F7E69"/>
<path d="M474.808 383.01H362.653C363.849 383.01 364.26 382.039 364.26 380.825V375.352C364.26 374.156 363.849 373.671 362.653 373.671H288.606C288.186 373.671 287.721 373.73 287.291 373.855C287.721 373.73 288.186 373.671 288.606 373.671H474.808C476.004 373.671 476.34 374.156 476.34 375.352V380.825C476.34 382.039 476.004 383.01 474.808 383.01Z" fill="#D2BBA0"/>
<path d="M286.958 382.511C286.305 382.112 285.804 381.507 285.804 380.825V375.352C285.804 374.571 286.482 374.093 287.291 373.856C286.762 374.253 286.42 374.887 286.42 375.598V381.077C286.42 381.626 286.622 382.129 286.958 382.511Z" fill="#BDC2CE"/>
<path d="M362.654 383.01H288.606C288.074 383.01 287.468 382.823 286.958 382.511C286.622 382.128 286.42 381.626 286.42 381.077V375.598C286.42 374.887 286.762 374.253 287.291 373.855C287.721 373.73 288.186 373.671 288.606 373.671H362.654C363.849 373.671 364.26 374.156 364.26 375.352V380.825C364.26 382.039 363.849 383.01 362.654 383.01Z" fill="#B9A691"/>
<path d="M321.961 101.203C316.458 81.0072 294.694 69.6018 274.635 77.2565C258.993 83.2263 249.503 99.7591 252.217 116.279C254.313 129.042 262.785 138.983 273.574 143.597C275.954 144.615 277.908 146.423 278.958 148.788L280.185 151.545L314.564 142.179L314.224 139.191C313.927 136.598 314.717 134.035 316.262 131.932C322.506 123.424 324.946 112.158 321.961 101.203Z" fill="#9F7E69"/>
<path d="M292.305 151.336C292.295 151.308 290.99 147.209 288.522 142.187C286.047 137.166 282.436 131.211 277.667 127.454L277.09 128.189L277.336 129.091L282.406 127.709C282.795 127.602 283.073 127.258 283.094 126.855L283.351 121.815L290.056 131.525C290.293 131.868 290.726 132.012 291.122 131.88C291.518 131.745 291.776 131.368 291.757 130.951L291.253 119.998L297.522 130.198C297.729 130.536 298.135 130.708 298.521 130.621C298.91 130.533 299.203 130.206 299.246 129.812L300.005 122.914L306.623 121.111L306.378 120.209L305.551 119.774C305.51 119.858 301.901 126.735 301.897 137.041C301.897 140.571 302.323 144.501 303.464 148.689C303.6 149.186 304.112 149.481 304.611 149.344C305.108 149.208 305.401 148.696 305.267 148.198C304.172 144.183 303.765 140.421 303.765 137.041C303.765 132.107 304.633 127.989 305.498 125.112C305.932 123.674 306.363 122.546 306.684 121.783C306.845 121.402 306.978 121.111 307.069 120.919L307.174 120.706L307.204 120.644C307.378 120.315 307.338 119.914 307.107 119.624C306.873 119.335 306.49 119.211 306.132 119.309L298.901 121.279C298.529 121.38 298.258 121.696 298.217 122.079L297.686 126.9L290.95 115.937C290.726 115.575 290.287 115.408 289.88 115.533C289.473 115.659 289.202 116.043 289.221 116.469L289.74 127.781L283.329 118.494C283.101 118.164 282.69 118.016 282.305 118.126C281.92 118.234 281.648 118.576 281.627 118.976L281.263 126.083L276.845 127.288C276.505 127.38 276.245 127.658 276.174 128.004C276.105 128.347 276.238 128.706 276.514 128.925C280.895 132.354 284.446 138.115 286.846 143.01C288.049 145.459 288.97 147.689 289.59 149.303C289.901 150.112 290.136 150.764 290.293 151.214C290.448 151.664 290.524 151.902 290.524 151.903C290.681 152.395 291.206 152.666 291.698 152.509C292.189 152.354 292.462 151.827 292.305 151.336Z" fill="white"/>
<path d="M297.905 148.896C291.819 150.555 288.425 157.546 290.323 164.516C292.222 171.485 298.695 175.788 304.781 174.132C310.867 172.473 314.261 165.479 312.361 158.51C310.463 151.543 303.991 147.237 297.905 148.896Z" fill="#252D32"/>
<path d="M309.636 167.721L297.389 171.059C291.315 172.714 284.991 169.404 282.888 163.472L278.87 152.139C278.534 151.19 279.075 150.155 280.047 149.89L313.843 140.681C314.814 140.416 315.808 141.034 315.998 142.023L318.285 153.828C319.482 160.009 315.711 166.066 309.636 167.721Z" fill="#9F7E69"/>
<path d="M294.221 171.483C289.243 171.483 284.625 168.373 282.888 163.471L278.87 152.139C278.801 151.946 278.769 151.75 278.769 151.558C278.771 150.801 279.273 150.101 280.047 149.89L313.843 140.681C313.996 140.64 314.149 140.62 314.3 140.62C315.107 140.62 315.838 141.189 315.998 142.022L318.285 153.827C318.434 154.599 318.507 155.37 318.507 156.131C318.505 160.535 316.071 164.596 312.221 166.686C311.418 167.121 310.553 167.473 309.636 167.721L297.389 171.059C296.453 171.313 295.512 171.451 294.58 171.479C294.46 171.483 294.341 171.483 294.221 171.483Z" fill="#D2BBA0"/>
<path d="M239.818 136.914C236.463 136.303 233.057 135.985 229.665 135.963C227.969 135.97 226.275 136.032 224.603 136.239C223.771 136.372 222.933 136.467 222.124 136.68C221.72 136.785 221.302 136.846 220.912 136.99L219.725 137.369L218.38 137.799L219.182 136.624C221.448 133.297 223.267 129.595 224.545 125.779C225.18 123.868 225.666 121.909 225.95 119.933C226.084 118.944 226.194 117.953 226.22 116.963C226.258 115.973 226.262 114.979 226.172 113.998C226.116 113.014 225.948 112.044 225.766 111.082L225.415 109.655L224.95 108.267C224.59 107.363 224.238 106.446 223.738 105.608C223.297 104.735 222.727 103.94 222.178 103.134C221.554 102.38 220.99 101.577 220.273 100.9L219.242 99.8507L218.119 98.8887C217.4 98.2163 216.548 97.6914 215.765 97.0918C214.949 96.5295 214.084 96.0364 213.247 95.5022L211.304 94.2638L213.374 93.2719C214.368 92.7937 215.414 92.2109 216.41 91.6244C217.409 91.023 218.395 90.3972 219.357 89.7341C221.281 88.4173 223.114 86.9696 224.825 85.4043C225.681 84.6198 226.499 83.8035 227.293 82.9648C228.073 82.1149 228.821 81.2407 229.527 80.3348C230.216 79.4195 230.885 78.4912 231.477 77.518C232.064 76.5467 232.654 75.5698 233.115 74.5387C233.623 73.5282 234.014 72.4672 234.387 71.4062L234.869 69.7924L235.219 68.1467C235.39 67.0409 235.585 65.9314 235.587 64.8088C235.669 63.6881 235.587 62.5655 235.523 61.4428C235.37 60.3277 235.284 59.2013 234.996 58.103L234.613 56.4481L234.092 54.8211C233.788 53.7265 233.274 52.6898 232.863 51.6251C232.405 50.5754 231.849 49.5629 231.348 48.53L228.682 43.0197L233.795 46.3091C234.697 46.89 235.729 47.4858 236.734 48.0219C237.752 48.5636 238.781 49.0848 239.831 49.5611C241.925 50.523 244.073 51.3599 246.26 52.0267C247.355 52.3592 248.457 52.6562 249.567 52.8916C250.674 53.1325 251.791 53.338 252.909 53.4519C254.024 53.5995 255.145 53.6555 256.254 53.6536C257.366 53.6667 258.468 53.5715 259.555 53.4351L261.171 53.1512L262.747 52.7346C263.771 52.3816 264.783 52.0062 265.736 51.4962C266.233 51.2833 266.672 50.9657 267.131 50.6856C267.598 50.4147 268.043 50.1103 268.456 49.7591C269.338 49.1296 270.092 48.3413 270.884 47.5942C271.585 46.7499 272.36 45.9728 272.956 45.0277C273.619 44.1404 274.183 43.1766 274.721 42.1903C275.308 41.2377 275.698 40.158 276.199 39.1494C276.634 38.0996 277.002 37.0162 277.411 35.9534L279.757 29.8323L280.906 36.2224C281.076 37.1675 281.381 38.2864 281.707 39.3026C282.04 40.3411 282.43 41.3666 282.877 42.3603C283.759 44.3571 284.844 46.2605 286.155 47.9752C287.461 49.6937 288.98 51.2347 290.691 52.5124C291.539 53.1605 292.448 53.7246 293.388 54.2308C294.326 54.7445 295.318 55.1461 296.315 55.5365C297.339 55.8596 298.363 56.1865 299.427 56.3808C300.477 56.6274 301.568 56.7282 302.648 56.8384C303.737 56.9019 304.828 56.9655 305.93 56.9038C307.028 56.9132 308.128 56.7619 309.231 56.6629C310.331 56.5452 311.425 56.3117 312.524 56.1436L315.789 55.3684L319.017 54.3952L322.204 53.2558L326.644 51.67L324.092 55.6056C323.64 56.3042 323.157 57.1336 322.732 57.933C322.308 58.7456 321.905 59.5731 321.541 60.4155C320.803 62.1003 320.216 63.8431 319.8 65.612C319.389 67.3827 319.159 69.1853 319.187 70.9692C319.215 72.753 319.506 74.5182 320.099 76.1769L320.597 77.4003L321.21 78.5715C321.683 79.3187 322.159 80.0677 322.753 80.7346C323.291 81.4462 323.98 82.0402 324.629 82.6603C325.327 83.2375 326.018 83.8222 326.797 84.3078C327.533 84.8495 328.359 85.2698 329.157 85.7275C329.964 86.1739 330.83 86.5232 331.663 86.9285L334.28 87.926L336.969 88.761L338.902 89.3587L337.322 90.5691C336.307 91.3461 335.28 92.2894 334.363 93.2644C333.417 94.2302 332.564 95.2818 331.766 96.3689C331.34 96.8957 331.004 97.4785 330.642 98.0444C330.257 98.6029 329.96 99.2044 329.661 99.8059C329.336 100.398 329.059 101.009 328.848 101.644C328.62 102.273 328.338 102.892 328.223 103.551C328.088 104.205 327.868 104.847 327.8 105.512L327.617 107.513C327.612 108.182 327.692 108.85 327.722 109.521C327.718 110.201 327.899 110.853 328.053 111.508C328.236 112.156 328.282 112.849 328.576 113.466L329.341 115.356C329.553 116.008 329.973 116.561 330.303 117.159L331.35 118.929L331.731 119.576L331.017 119.58C328.282 119.593 325.499 119.944 322.835 120.663C321.511 121.046 320.196 121.505 318.983 122.178C318.671 122.329 318.395 122.538 318.096 122.716C317.795 122.891 317.519 123.099 317.256 123.325C316.996 123.554 316.691 123.739 316.471 124.01L315.757 124.772L316.43 123.971C316.639 123.685 316.932 123.485 317.183 123.239C317.437 122.996 317.706 122.77 318.001 122.577C318.29 122.381 318.563 122.153 318.869 121.983C320.065 121.234 321.374 120.695 322.704 120.231C325.383 119.337 328.178 118.896 331.017 118.759L330.685 119.408L329.528 117.624C329.16 117.017 328.704 116.458 328.452 115.786L327.569 113.832C327.236 113.193 327.15 112.463 326.93 111.779C326.739 111.084 326.523 110.393 326.493 109.668C326.427 108.949 326.315 108.23 326.295 107.507L326.405 105.337C326.452 104.612 326.655 103.912 326.775 103.196C326.878 102.473 327.147 101.799 327.367 101.11C327.572 100.411 327.841 99.7405 328.165 99.0942C328.46 98.4329 328.757 97.7736 329.14 97.1609C329.502 96.5389 329.844 95.9001 330.272 95.321C331.068 94.1199 331.968 92.9936 332.941 91.9364C333.912 90.8623 334.916 89.8779 336.092 88.9309L336.445 90.739L333.617 89.9377L330.834 88.9534C329.932 88.5443 329.005 88.195 328.124 87.7355C327.246 87.2629 326.347 86.8295 325.518 86.2561C324.657 85.7424 323.863 85.111 323.069 84.4834C322.316 83.8054 321.528 83.1479 320.881 82.3465C320.183 81.5938 319.6 80.7383 319.03 79.8753L318.275 78.5173L317.653 77.0922C316.906 75.157 316.518 73.0967 316.437 71.0495C316.353 69.0004 316.566 66.9644 316.975 64.99C317.39 63.0175 317.986 61.0954 318.742 59.2443C319.116 58.3178 319.531 57.41 319.972 56.5134C320.429 55.6094 320.878 54.7594 321.468 53.8479L323.355 56.1977L320.031 57.4156L316.639 58.4672C315.492 58.7754 314.33 59.0388 313.174 59.3209C311.995 59.5151 310.828 59.771 309.634 59.9093C308.439 60.0307 307.249 60.1988 306.036 60.2025C304.83 60.2772 303.615 60.2212 302.399 60.1577C301.187 60.0456 299.965 59.9392 298.766 59.6721C297.556 59.4573 296.373 59.0986 295.194 58.7306C294.036 58.2935 292.887 57.8341 291.791 57.2457C290.696 56.6685 289.633 56.0184 288.641 55.275C286.641 53.8068 284.877 52.0417 283.377 50.0972C281.868 48.1546 280.637 46.0289 279.634 43.8135C279.128 42.7059 278.687 41.5721 278.306 40.4158C277.923 39.239 277.594 38.1314 277.344 36.807L280.841 37.076C280.411 38.236 280.019 39.4053 279.554 40.5559C279.014 41.6804 278.592 42.8497 277.947 43.935C277.353 45.0408 276.727 46.1298 275.975 47.1571C275.302 48.2312 274.411 49.167 273.595 50.1476C272.678 51.0517 271.768 51.9669 270.707 52.7197C270.206 53.1325 269.67 53.4949 269.106 53.8199C268.549 54.1543 268.013 54.5241 267.415 54.7819C266.261 55.3852 265.043 55.8316 263.816 56.237L261.942 56.7152C261.313 56.8422 260.678 56.93 260.044 57.0346C258.778 57.1859 257.504 57.2793 256.241 57.2568C254.976 57.2494 253.715 57.1728 252.479 57.0028C251.233 56.8627 250.009 56.6255 248.799 56.3547C247.587 56.0876 246.395 55.755 245.22 55.3889C242.866 54.6492 240.585 53.7377 238.37 52.6992C237.26 52.1836 236.173 51.6232 235.097 51.0386C234.014 50.4464 232.986 49.8487 231.897 49.1352L234.344 46.9143C234.88 48.035 235.465 49.1296 235.955 50.2746C236.401 51.4402 236.939 52.5666 237.271 53.7807L237.828 55.5757L238.241 57.4194C238.545 58.641 238.644 59.913 238.8 61.1627C238.865 62.4291 238.94 63.6955 238.842 64.9657C238.824 66.2359 238.602 67.4967 238.392 68.7445L237.981 70.6049L237.423 72.4224C236.995 73.6123 236.545 74.7984 235.969 75.9191C235.439 77.0641 234.795 78.1475 234.113 79.1972C233.435 80.2526 232.68 81.2482 231.907 82.2252C231.118 83.1871 230.289 84.1117 229.428 85.0008C228.555 85.8806 227.661 86.7305 226.732 87.5412C224.874 89.1588 222.907 90.6363 220.852 91.97C219.826 92.6406 218.776 93.2719 217.712 93.8771C216.63 94.4786 215.575 95.039 214.398 95.5676L214.525 93.3373C215.407 93.9257 216.313 94.4749 217.172 95.0987C218.003 95.7637 218.892 96.3484 219.662 97.0955L220.85 98.1696L221.95 99.3407C222.709 100.097 223.318 100.998 223.975 101.84C224.565 102.744 225.165 103.637 225.632 104.612C226.157 105.552 226.527 106.573 226.897 107.578L227.371 109.121L227.719 110.694C227.894 111.749 228.047 112.814 228.083 113.881C228.292 118.154 227.382 122.363 225.916 126.265C225.182 128.222 224.302 130.114 223.304 131.939C222.301 133.766 221.22 135.524 219.951 137.205L219.408 136.46L220.672 136.109C221.091 135.976 221.524 135.927 221.948 135.836C222.8 135.649 223.665 135.584 224.522 135.483C226.245 135.343 227.967 135.337 229.68 135.417C233.104 135.621 236.498 136.125 239.818 136.914Z" fill="#9F7E69"/>
<path d="M218.38 137.799L219.182 136.624C221.448 133.297 223.267 129.595 224.545 125.779C225.18 123.868 225.666 121.909 225.95 119.933C226.084 118.944 226.194 117.953 226.22 116.963C226.235 116.559 226.245 116.158 226.245 115.756C226.245 115.168 226.224 114.581 226.172 113.998C226.116 113.014 225.948 112.044 225.766 111.082L225.415 109.655L224.95 108.267C224.59 107.363 224.238 106.446 223.738 105.608C223.297 104.735 222.727 103.94 222.178 103.134C221.554 102.38 220.99 101.577 220.273 100.9L219.242 99.8507L218.119 98.8887C217.4 98.2163 216.548 97.6914 215.765 97.0918C214.949 96.5295 214.084 96.0364 213.247 95.5022L211.304 94.2638L213.374 93.2719C214.368 92.7937 215.414 92.2109 216.41 91.6244C217.409 91.023 218.395 90.3972 219.357 89.7341C221.281 88.4173 223.114 86.9696 224.825 85.4043C225.681 84.6198 226.499 83.8035 227.293 82.9648C228.073 82.1149 228.821 81.2407 229.527 80.3348C230.216 79.4195 230.885 78.4912 231.477 77.518C232.064 76.5467 232.654 75.5698 233.115 74.5387C233.623 73.5282 234.014 72.4672 234.387 71.4062L234.869 69.7924L235.219 68.1467C235.39 67.0409 235.585 65.9314 235.587 64.8088C235.611 64.4745 235.62 64.142 235.62 63.8095C235.622 63.0212 235.568 62.2311 235.523 61.4428C235.37 60.3277 235.284 59.2013 234.996 58.103L234.613 56.4481L234.092 54.8211C233.788 53.7265 233.274 52.6898 232.863 51.6251C232.405 50.5754 231.849 49.5629 231.348 48.53L228.682 43.0197L233.795 46.3091C234.697 46.89 235.729 47.4858 236.734 48.0219C237.752 48.5636 238.781 49.0848 239.831 49.5611C241.925 50.523 244.073 51.3599 246.26 52.0267C247.355 52.3592 248.457 52.6562 249.567 52.8916C250.674 53.1325 251.791 53.338 252.909 53.4519C254.003 53.5958 255.103 53.6536 256.194 53.6536C256.215 53.6536 256.234 53.6536 256.254 53.6536C256.32 53.6536 256.387 53.6536 256.452 53.6536C257.498 53.6536 258.531 53.564 259.555 53.4351L261.171 53.1512L262.747 52.7346C263.771 52.3816 264.783 52.0062 265.736 51.4962C266.233 51.2833 266.672 50.9657 267.131 50.6856C267.598 50.4147 268.043 50.1103 268.456 49.7591C269.338 49.1296 270.092 48.3413 270.884 47.5942C271.585 46.7499 272.36 45.9728 272.956 45.0277C273.619 44.1404 274.183 43.1766 274.721 42.1903C275.308 41.2377 275.698 40.158 276.199 39.1494C276.634 38.0996 277.002 37.0162 277.411 35.9534L279.757 29.8323L280.906 36.2224C281.076 37.1675 281.381 38.2864 281.707 39.3026C282.04 40.3411 282.43 41.3666 282.877 42.3603C283.759 44.3571 284.844 46.2605 286.155 47.9752C287.461 49.6937 288.98 51.2347 290.691 52.5124C291.539 53.1605 292.448 53.7246 293.388 54.2308C294.326 54.7445 295.318 55.1461 296.315 55.5365C297.339 55.8596 298.363 56.1865 299.427 56.3808C300.477 56.6274 301.568 56.7282 302.648 56.8384C303.423 56.8833 304.2 56.93 304.981 56.93C305.297 56.93 305.612 56.9225 305.93 56.9038C305.963 56.9038 305.997 56.9038 306.031 56.9038C307.095 56.9038 308.162 56.76 309.231 56.6629C310.331 56.5452 311.425 56.3117 312.524 56.1436L315.789 55.3684L319.017 54.3952L322.204 53.2558L326.644 51.67L324.092 55.6056C323.64 56.3042 323.157 57.1336 322.732 57.933C322.308 58.7456 321.905 59.5731 321.541 60.4155C320.803 62.1003 320.216 63.8431 319.8 65.612C319.411 67.2856 319.185 68.9873 319.185 70.6759C319.185 70.7749 319.185 70.872 319.187 70.9692C319.215 72.753 319.506 74.5182 320.099 76.1769L320.597 77.4003L321.21 78.5715C321.683 79.3187 322.159 80.0677 322.753 80.7346C323.291 81.4462 323.98 82.0402 324.629 82.6603C325.327 83.2375 326.018 83.8222 326.797 84.3078C327.533 84.8495 328.359 85.2698 329.157 85.7275C329.964 86.1739 330.83 86.5232 331.663 86.9285L334.28 87.926L336.969 88.761L338.902 89.3587L337.322 90.5691C336.307 91.3461 335.28 92.2894 334.363 93.2644C333.417 94.2302 332.564 95.2818 331.766 96.3689C331.34 96.8957 331.004 97.4785 330.642 98.0444C330.257 98.6029 329.96 99.2044 329.661 99.8059C329.336 100.398 329.059 101.009 328.848 101.644C328.62 102.273 328.338 102.892 328.223 103.551C328.088 104.205 327.868 104.847 327.8 105.512L327.617 107.513C327.617 107.535 327.617 107.556 327.617 107.576C327.615 108.225 327.694 108.871 327.722 109.521C327.722 109.528 327.722 109.532 327.722 109.538C327.722 110.21 327.901 110.856 328.053 111.508C328.236 112.156 328.282 112.849 328.576 113.466L329.341 115.356C329.553 116.008 329.973 116.561 330.303 117.159L331.35 118.929L331.731 119.576L331.017 119.58C328.282 119.593 325.499 119.944 322.835 120.663C321.511 121.046 320.196 121.505 318.983 122.178C318.671 122.329 318.395 122.538 318.096 122.716C317.795 122.891 317.519 123.099 317.256 123.325C316.996 123.554 316.691 123.739 316.471 124.01L315.757 124.772L316.43 123.971C316.639 123.685 316.932 123.485 317.183 123.239C317.437 122.996 317.706 122.77 318.001 122.577C318.29 122.381 318.563 122.153 318.869 121.983C320.065 121.234 321.374 120.695 322.704 120.231C325.155 119.413 327.701 118.974 330.29 118.801L329.528 117.624C329.16 117.017 328.704 116.458 328.452 115.786L328.133 115.082L327.569 113.832C327.236 113.193 327.15 112.463 326.93 111.779C326.739 111.084 326.523 110.393 326.493 109.668C326.427 108.949 326.315 108.23 326.295 107.507L326.405 105.337C326.452 104.612 326.655 103.912 326.775 103.196C326.878 102.473 327.147 101.799 327.367 101.11C327.572 100.411 327.841 99.7405 328.165 99.0942C328.46 98.4329 328.757 97.7736 329.14 97.1609C329.502 96.5389 329.844 95.9001 330.272 95.321C331.068 94.1199 331.968 92.9936 332.941 91.9364C333.481 91.3387 334.03 90.7708 334.615 90.2198L333.617 89.9377L330.834 88.9534C329.932 88.5443 329.005 88.195 328.124 87.7355C327.246 87.2629 326.347 86.8295 325.518 86.2561C324.657 85.7424 323.863 85.111 323.069 84.4834C322.316 83.8054 321.528 83.1479 320.881 82.3465C320.343 81.7675 319.874 81.1287 319.428 80.4712C319.294 80.2732 319.163 80.0752 319.03 79.8753L318.29 78.5416L318.275 78.5173L317.653 77.0922C316.906 75.157 316.518 73.0967 316.437 71.0495C316.424 70.7618 316.419 70.4741 316.419 70.1865C316.417 68.4288 316.624 66.6861 316.975 64.99C317.39 63.0175 317.986 61.0954 318.742 59.2443C318.967 58.6895 319.206 58.1385 319.456 57.5949L316.639 58.4672C315.492 58.7754 314.33 59.0388 313.174 59.3209C311.995 59.5151 310.828 59.771 309.634 59.9093C308.439 60.0307 307.249 60.1988 306.036 60.2025C305.627 60.2287 305.216 60.238 304.805 60.238C304.004 60.238 303.203 60.1988 302.399 60.1577C301.187 60.0456 299.965 59.9392 298.766 59.6721C297.556 59.4573 296.373 59.0986 295.194 58.7306C294.036 58.2935 292.887 57.8341 291.791 57.2457C290.696 56.6685 289.633 56.0184 288.641 55.275C286.641 53.8068 284.877 52.0417 283.377 50.0972C281.868 48.1546 280.637 46.0289 279.634 43.8135C279.367 43.2289 279.118 42.6386 278.887 42.0409C278.603 42.6834 278.311 43.3223 277.947 43.935C277.353 45.0408 276.727 46.1298 275.975 47.1571C275.302 48.2312 274.411 49.167 273.595 50.1476C272.678 51.0517 271.768 51.9669 270.707 52.7197C270.206 53.1325 269.67 53.4949 269.106 53.8199C268.549 54.1543 268.013 54.5241 267.415 54.7819C266.261 55.3852 265.043 55.8316 263.816 56.237L261.942 56.7152C261.313 56.8422 260.678 56.93 260.044 57.0346C258.905 57.1728 257.76 57.2606 256.62 57.2606C256.493 57.2606 256.366 57.2606 256.241 57.2568C254.976 57.2494 253.715 57.1728 252.479 57.0028C251.233 56.8627 250.009 56.6255 248.799 56.3547C247.587 56.0876 246.395 55.755 245.22 55.3889C242.866 54.6492 240.585 53.7377 238.37 52.6992C237.767 52.419 237.171 52.1257 236.58 51.8231C236.84 52.4638 237.087 53.1082 237.271 53.7807L237.828 55.5757L238.241 57.4194C238.545 58.641 238.644 59.913 238.8 61.1627C238.842 61.9939 238.889 62.8251 238.889 63.6581C238.889 64.0934 238.876 64.5286 238.842 64.9657C238.824 66.2359 238.602 67.4967 238.392 68.7445L237.981 70.6049L237.423 72.4224C236.995 73.6123 236.545 74.7984 235.969 75.9191C235.439 77.0641 234.795 78.1475 234.113 79.1972C233.435 80.2526 232.68 81.2482 231.907 82.2252C231.118 83.1871 230.289 84.1117 229.428 85.0008C228.555 85.8806 227.661 86.7305 226.732 87.5412C226.717 87.5543 226.702 87.5673 226.687 87.5804C224.842 89.1831 222.89 90.6475 220.852 91.97C220.312 92.323 219.766 92.6649 219.215 92.9973C218.717 93.2981 218.216 93.5913 217.712 93.8771C217.28 94.1162 216.852 94.3497 216.421 94.5776C216.673 94.7476 216.925 94.9194 217.172 95.0987C218.003 95.7637 218.892 96.3484 219.662 97.0955L220.85 98.1696L221.95 99.3407C222.709 100.097 223.318 100.998 223.975 101.84C224.565 102.744 225.165 103.637 225.632 104.612C226.157 105.552 226.527 106.573 226.897 107.578L227.371 109.121L227.719 110.694C227.894 111.749 228.047 112.814 228.083 113.881C228.103 114.28 228.113 114.682 228.113 115.08C228.113 115.573 228.1 116.064 228.072 116.553C227.931 119.105 227.427 121.612 226.682 124.025C226.448 124.782 226.192 125.529 225.916 126.265C225.182 128.222 224.302 130.114 223.304 131.939C222.524 133.363 221.694 134.745 220.766 136.079C221.154 135.968 221.556 135.92 221.948 135.836C222.8 135.649 223.665 135.584 224.522 135.483C225.527 135.403 226.531 135.365 227.534 135.365C228.251 135.365 228.966 135.384 229.68 135.417C233.104 135.621 236.498 136.125 239.818 136.914C236.463 136.303 233.057 135.985 229.665 135.963C228.669 135.969 227.676 135.991 226.687 136.049C225.989 136.092 225.294 136.153 224.603 136.239C223.771 136.372 222.933 136.467 222.124 136.68C221.72 136.785 221.302 136.846 220.912 136.99L219.725 137.369L219.215 137.534L218.38 137.799Z" fill="#9F7E69"/>
</svg>
