<svg width="39" height="39" viewBox="0 0 39 39" fill="none" xmlns="http://www.w3.org/2000/svg">
<path d="M12.7227 23.563C9.66678 23.7595 6.89342 24.9234 5.31974 29.0702C5.14074 29.5433 4.71038 29.8304 4.20841 29.8304C3.36216 29.8304 0.745708 27.7228 0 27.2139C0.000761704 33.4867 2.8899 39 9.75057 39C15.5289 39 19.5004 35.666 19.5004 29.8449C19.5004 29.608 19.4509 29.3818 19.4265 29.1495L12.7227 23.563ZM34.8784 0C33.7237 0 32.6413 0.511113 31.8156 1.25303C16.2456 15.162 14.6255 15.4888 14.6255 19.583C14.6255 20.6266 14.873 21.6214 15.2904 22.5309L20.1516 26.5817C20.7008 26.7188 21.2668 26.8125 21.8571 26.8125C26.588 26.8125 29.3302 23.349 37.9412 7.27746C38.5034 6.18439 39 5.00373 39 3.77432C39 1.57219 37.0196 0 34.8784 0Z" fill="#65C525"/>
</svg>
