<svg width="39" height="38" viewBox="0 0 39 38" fill="none" xmlns="http://www.w3.org/2000/svg">
<g clip-path="url(#clip0)">
<path d="M6.98555 0C3.11586 0 0 3.09491 0 6.93857V31.0615C0 34.9051 3.11586 38 6.98555 38H20.1485V23.1444H16.1936V17.7959H20.1485V13.2264C20.1485 9.63634 22.4852 6.34007 27.8681 6.34007C30.0475 6.34007 31.6591 6.54789 31.6591 6.54789L31.5324 11.5425C31.5324 11.5425 29.8887 11.5271 28.0952 11.5271C26.1541 11.5271 25.8428 12.4155 25.8428 13.8903V17.7959H31.6866L31.432 23.1444H25.8428V38.0001H31.2717C35.1414 38.0001 38.2573 34.9052 38.2573 31.0615V6.93861C38.2573 3.09495 35.1414 3.8e-05 31.2717 3.8e-05H6.98551L6.98555 0Z" fill="#FFFAFA"/>
</g>
<defs>
<clipPath id="clip0">
<rect width="38.2573" height="38" fill="white"/>
</clipPath>
</defs>
</svg>
